<svg width="43" height="43" viewBox="0 0 43 43" fill="none" xmlns="http://www.w3.org/2000/svg">
<g clip-path="url(#clip0_32_39)">
<path fill-rule="evenodd" clip-rule="evenodd" d="M22.7569 23.2558C22.0913 24.5835 20.9518 25.4381 19.7173 25.7265C19.531 25.7265 19.2452 25.8206 18.9594 25.8206C16.873 25.8206 15.6395 24.2063 15.6395 21.8341C15.6395 18.7937 17.4419 17.372 19.7173 16.7046C20.9518 16.4206 22.3779 16.3248 23.8005 16.3248V17.4652C23.8005 19.6483 23.8946 21.3558 22.7569 23.2558ZM23.8005 11.9612C22.5669 12.0552 21.1408 12.1493 19.7173 12.3356C17.5359 12.6241 15.3546 13.0039 13.554 13.8585C10.0423 15.2829 7.66833 18.3198 7.66833 22.7801C7.66833 28.3854 11.2732 31.2305 15.8321 31.2305C17.3487 31.2305 18.5823 31.0388 19.7173 30.7575C21.5251 30.186 23.0399 29.1415 24.8424 27.2414C25.8869 28.6658 26.1745 29.3332 27.9751 30.8516C28.4499 31.0388 28.9247 31.0388 29.3018 30.7575C30.4422 29.8062 32.4372 28.0969 33.4791 27.1473C33.9539 26.7684 33.8607 26.1978 33.5723 25.7265C32.5304 24.3962 31.4841 23.2558 31.4841 20.6929V12.1484C31.4841 8.54177 31.7725 5.21823 29.1146 2.752C26.9332 0.761458 23.5156 0 20.8577 0H19.7173C14.8816 0.280396 9.75921 2.37037 8.61613 8.35185C8.42621 9.11331 8.99775 9.3964 9.37759 9.48956L14.6917 10.1552C15.2605 10.0593 15.5463 9.58362 15.6395 9.11331C16.1125 7.02423 17.8217 5.97969 19.7173 5.78708H20.0998C21.2393 5.78708 22.4738 6.26277 23.1358 7.21415C23.8946 8.35185 23.8005 9.87208 23.8005 11.2024V11.9612Z" fill="#343B45"/>
<path fill-rule="evenodd" clip-rule="evenodd" d="M42.9947 32.2016V32.1998C42.9749 31.7519 42.8809 31.4106 42.6945 31.1266L42.6739 31.0997L42.6515 31.0711C42.4616 30.8641 42.2798 30.7853 42.0827 30.6993C41.4932 30.4718 40.6359 30.3499 39.6048 30.3481C38.864 30.3481 38.047 30.4189 37.2255 30.599L37.2228 30.5425L36.3959 30.8185L36.3807 30.8256L35.9131 30.9779V30.9976C35.3785 31.2195 34.8721 31.5039 34.4045 31.8451C34.116 32.0601 33.8787 32.3468 33.8652 32.7839C33.8652 32.912 33.8932 33.0386 33.9474 33.1547C34.0016 33.2707 34.0806 33.3735 34.1788 33.4558C34.2862 33.5415 34.4101 33.6041 34.5428 33.6399C34.6755 33.6756 34.8141 33.6837 34.9501 33.6636L34.9904 33.6618L35.0208 33.6565C35.4258 33.5705 36.0152 33.5122 36.705 33.4164C37.2963 33.3501 37.9233 33.3026 38.4671 33.3026C38.8514 33.2999 39.1972 33.3277 39.4346 33.3779C39.5368 33.3964 39.6357 33.4296 39.7284 33.4764C39.747 33.5544 39.7546 33.6346 39.7508 33.7147C39.7562 34.1698 39.5645 35.0145 39.2984 35.8396C39.0404 36.6638 38.7269 37.4906 38.52 38.0398C38.4657 38.1723 38.4374 38.314 38.4366 38.4572C38.4313 38.6776 38.5227 38.9455 38.7144 39.1228C38.9025 39.2993 39.1444 39.3701 39.3468 39.3701H39.3567C39.6604 39.3674 39.9184 39.2465 40.1405 39.0718C42.2395 37.1851 42.9696 34.1698 43 32.4722L42.9947 32.2016ZM36.7731 34.8175C36.5518 34.8166 36.3332 34.8656 36.1335 34.9608C35.9032 35.0522 35.6676 35.1588 35.4455 35.2528L35.1194 35.389L34.6948 35.5592V35.5637C30.0812 37.436 25.2348 38.5334 20.7493 38.6292C20.5845 38.6346 20.4179 38.6346 20.2584 38.6346C13.2046 38.6391 7.45067 35.3666 1.64567 32.1416C1.45724 32.0387 1.24668 31.9831 1.03203 31.9795C0.771341 31.9795 0.503487 32.078 0.308195 32.2599C0.210542 32.3528 0.132854 32.4647 0.0798709 32.5887C0.0268881 32.7127 -0.000278627 32.8462 2.8165e-05 32.981C-0.00265934 33.3322 0.187257 33.6565 0.452424 33.8661C5.90088 38.5988 11.8725 42.9946 19.9054 43C20.0622 43 20.2217 42.9946 20.3802 42.9928C25.4901 42.8782 31.2673 41.151 35.7527 38.3336L35.7796 38.3157C36.3813 37.9566 36.9583 37.5577 37.5068 37.1215C37.8508 36.8662 38.0891 36.4667 38.0891 36.0519C38.0738 35.3155 37.4477 34.8175 36.7731 34.8175Z" fill="#FF9A00"/>
</g>
<defs>
<clipPath id="clip0_32_39">
<rect width="43" height="43" fill="white"/>
</clipPath>
</defs>
</svg>
