<svg width="15" height="15" viewBox="0 0 15 15" fill="none" xmlns="http://www.w3.org/2000/svg">
<g clip-path="url(#clip0_40_164)">
<path d="M15 7.5C15 11.6419 11.6419 15 7.5 15L7.45875 14.4994V13.0256L7.5 13.4213C10.7644 13.4213 13.4212 10.7644 13.4212 7.5C13.4212 4.23563 10.7644 1.57875 7.5 1.57875L7.45875 1.97438V0.500625L7.5 0C11.6419 0 15 3.35813 15 7.5Z" fill="#E8D631"/>
<path d="M7.45875 4.7644V5.17503L3.49688 9.0619C3.48563 9.07315 3.47063 9.08253 3.45563 9.08815C3.44063 9.09378 3.42375 9.09753 3.40688 9.09753C3.39 9.09753 3.37313 9.09378 3.35813 9.08815C3.34313 9.08065 3.33 9.07128 3.31688 9.06003L2.60625 8.31378C2.58375 8.29128 2.5725 8.2594 2.5725 8.2294C2.5725 8.19753 2.58563 8.16753 2.60813 8.14503L5.78063 5.0344C5.95688 4.8619 6.19313 4.76628 6.44063 4.76628H7.45875V4.7644Z" fill="#FFE600"/>
<path d="M7.45875 7.53003V10.7944H7.01813C6.98625 10.7944 6.95438 10.7813 6.93188 10.7588C6.90938 10.7363 6.89625 10.7063 6.89625 10.6725V8.5594L4.9275 10.4925C4.91625 10.5038 4.90125 10.5132 4.88625 10.5188C4.87125 10.5244 4.85438 10.5282 4.8375 10.5282C4.82063 10.5282 4.80375 10.5244 4.78875 10.5169C4.77375 10.5094 4.76063 10.5 4.7475 10.4888L4.03688 9.74253C4.01438 9.72003 4.00313 9.68815 4.00313 9.65815C4.00313 9.62628 4.01625 9.59628 4.03875 9.57378L5.85 7.79815C6.02625 7.62565 6.26438 7.53003 6.51188 7.53003H7.45875Z" fill="#FFE600"/>
<path d="M1.57875 7.5C1.57875 10.7513 4.21312 13.3988 7.45875 13.4213V15C3.31687 15 -0.0412521 11.6419 -0.0412521 7.5C-0.0412521 3.35813 3.31687 0 7.45875 0V1.57875C4.21312 1.60125 1.57875 4.24875 1.57875 7.5Z" fill="#FFE600"/>
<path d="M7.5 1.57874V4.76436H7.45875V1.57874C7.47187 1.57874 7.48687 1.57874 7.5 1.57874Z" fill="white"/>
<path d="M7.5 5.16563V7.53001H7.45875V5.17688L7.485 5.15063L7.5 5.16563Z" fill="white"/>
<path d="M7.5 10.7944V13.4213C7.48687 13.4213 7.47187 13.4213 7.45875 13.4213V10.7944H7.5Z" fill="white"/>
<path d="M7.5 4.7644V5.16565L7.485 5.15065L3.49688 9.0619C3.48563 9.07315 3.47063 9.08253 3.45563 9.08815C3.44063 9.09378 3.42375 9.09753 3.40688 9.09753C3.39 9.09753 3.37313 9.09378 3.35813 9.08815C3.34313 9.08065 3.33 9.07128 3.31688 9.06003L2.60625 8.31378C2.58375 8.29128 2.5725 8.2594 2.5725 8.2294C2.5725 8.19753 2.58563 8.16753 2.60813 8.14503L5.78063 5.0344C5.95688 4.8619 6.19313 4.76628 6.44063 4.76628H7.5V4.7644Z" fill="#E8D631"/>
<path d="M12.3956 8.22753C12.3956 8.2594 12.3825 8.2894 12.3619 8.3119L11.6513 9.05815C11.64 9.0694 11.6269 9.07878 11.61 9.08628C11.595 9.0919 11.5781 9.09565 11.5612 9.09753C11.5444 9.09753 11.5275 9.09378 11.5125 9.08815C11.4975 9.08253 11.4825 9.07315 11.4712 9.0619L7.5 5.16565V4.7644H8.52563C8.77313 4.7644 9.00937 4.86003 9.18562 5.03253L12.36 8.14128C12.3844 8.16565 12.3956 8.19565 12.3956 8.22753Z" fill="#FFE600"/>
<path d="M7.5 7.53003V10.7944H7.01813C6.98625 10.7944 6.95438 10.7813 6.93188 10.7588C6.90938 10.7363 6.89625 10.7063 6.89625 10.6725V8.5594L4.9275 10.4925C4.91625 10.5038 4.90125 10.5132 4.88625 10.5188C4.87125 10.5244 4.85438 10.5282 4.8375 10.5282C4.82063 10.5282 4.80375 10.5244 4.78875 10.5169C4.77375 10.5094 4.76063 10.5 4.7475 10.4888L4.03688 9.74253C4.01438 9.72003 4.00313 9.68815 4.00313 9.65815C4.00313 9.62628 4.01625 9.59628 4.03875 9.57378L5.85 7.79815C6.02625 7.62565 6.26438 7.53003 6.51188 7.53003H7.5Z" fill="#E8D631"/>
<path d="M11.1038 9.6562C11.1038 9.68808 11.0925 9.71808 11.07 9.74058L10.3575 10.4887C10.3463 10.5 10.3331 10.5093 10.3163 10.5168C10.3013 10.5225 10.2844 10.5262 10.2675 10.5281C10.2506 10.5281 10.2338 10.5243 10.2188 10.5187C10.2038 10.5131 10.1887 10.5037 10.1775 10.4925L8.20875 8.55933V10.6725C8.20875 10.7043 8.19562 10.7343 8.17312 10.7587C8.15062 10.7812 8.11875 10.7943 8.08687 10.7943H7.5V7.52995H8.595V7.52808C8.8425 7.52808 9.07875 7.6237 9.255 7.7962L11.0663 9.57183C11.0888 9.59433 11.1019 9.62433 11.1038 9.6562Z" fill="#FFE600"/>
</g>
<defs>
<clipPath id="clip0_40_164">
<rect width="15" height="15" fill="white"/>
</clipPath>
</defs>
</svg>
