<svg width="16" height="64" viewBox="0 0 16 64" fill="none" xmlns="http://www.w3.org/2000/svg">
<path d="M7.29289 63.7071C7.68341 64.0976 8.31658 64.0976 8.7071 63.7071L15.0711 57.3431C15.4616 56.9526 15.4616 56.3195 15.0711 55.9289C14.6805 55.5384 14.0474 55.5384 13.6569 55.9289L8 61.5858L2.34314 55.9289C1.95262 55.5384 1.31945 55.5384 0.92893 55.9289C0.538405 56.3195 0.538405 56.9526 0.92893 57.3431L7.29289 63.7071ZM7 -4.37114e-08L7 1.96875L9 1.96875L9 4.37114e-08L7 -4.37114e-08ZM7 5.90625L7 9.84375L9 9.84375L9 5.90625L7 5.90625ZM7 13.7812L7 17.7187L9 17.7188L9 13.7813L7 13.7812ZM7 21.6562L7 25.5937L9 25.5938L9 21.6563L7 21.6562ZM7 29.5312L7 33.4687L9 33.4688L9 29.5313L7 29.5312ZM7 37.4062L7 41.3437L9 41.3438L9 37.4063L7 37.4062ZM7 45.2812L7 49.2187L9 49.2188L9 45.2813L7 45.2812ZM7 53.1562L7 57.0937L9 57.0938L9 53.1563L7 53.1562ZM7 61.0312L7 63L9 63L9 61.0313L7 61.0312ZM7.29289 63.7071C7.68341 64.0976 8.31658 64.0976 8.7071 63.7071L15.0711 57.3431C15.4616 56.9526 15.4616 56.3195 15.0711 55.9289C14.6805 55.5384 14.0474 55.5384 13.6569 55.9289L8 61.5858L2.34314 55.9289C1.95262 55.5384 1.31945 55.5384 0.92893 55.9289C0.538405 56.3195 0.538405 56.9526 0.92893 57.3431L7.29289 63.7071ZM7 -4.37114e-08L7 1.96875L9 1.96875L9 4.37114e-08L7 -4.37114e-08ZM7 5.90625L7 9.84375L9 9.84375L9 5.90625L7 5.90625ZM7 13.7812L7 17.7187L9 17.7188L9 13.7813L7 13.7812ZM7 21.6562L7 25.5937L9 25.5938L9 21.6563L7 21.6562ZM7 29.5312L7 33.4687L9 33.4688L9 29.5313L7 29.5312ZM7 37.4062L7 41.3437L9 41.3438L9 37.4063L7 37.4062ZM7 45.2812L7 49.2187L9 49.2188L9 45.2813L7 45.2812ZM7 53.1562L7 57.0937L9 57.0938L9 53.1563L7 53.1562ZM7 61.0312L7 63L9 63L9 61.0313L7 61.0312Z" fill="black"/>
</svg>
