<svg width="26" height="25" viewBox="0 0 26 25" fill="none" xmlns="http://www.w3.org/2000/svg">
<path d="M12.7048 0.924805C5.69918 0.924805 0 6.13959 0 12.5498C0 18.96 5.69918 24.1748 12.7048 24.1748C19.7105 24.1748 25.4097 18.96 25.4097 12.5498C25.4097 6.13959 19.7105 0.924805 12.7048 0.924805ZM8.46989 21.4274V21.2686C8.46989 19.1315 10.3693 17.3936 12.7048 17.3936C15.0404 17.3936 16.9398 19.1315 16.9398 21.2686V21.4274C15.6418 21.9476 14.2104 22.2373 12.7048 22.2373C11.1993 22.2373 9.7679 21.9476 8.46989 21.4274ZM18.9779 20.3492C18.4951 17.5796 15.8662 15.4561 12.7048 15.4561C9.54345 15.4561 6.91567 17.5796 6.43183 20.3492C3.81675 18.5832 2.11747 15.7447 2.11747 12.5498C2.11747 7.20812 6.86697 2.8623 12.7048 2.8623C18.5427 2.8623 23.2922 7.20812 23.2922 12.5498C23.2922 15.7447 21.5929 18.5832 18.9779 20.3492ZM12.7048 5.76855C10.3693 5.76855 8.46989 7.50649 8.46989 9.64355C8.46989 11.7806 10.3693 13.5186 12.7048 13.5186C15.0404 13.5186 16.9398 11.7806 16.9398 9.64355C16.9398 7.50649 15.0404 5.76855 12.7048 5.76855ZM12.7048 11.5811C11.5371 11.5811 10.5874 10.7121 10.5874 9.64355C10.5874 8.57502 11.5371 7.70605 12.7048 7.70605C13.8726 7.70605 14.8223 8.57502 14.8223 9.64355C14.8223 10.7121 13.8726 11.5811 12.7048 11.5811Z" fill="#75C044"/>
</svg>
