<svg width="32" height="40" viewBox="0 0 32 40" fill="none" xmlns="http://www.w3.org/2000/svg">
<path d="M25 21.6667C23.5341 21.6616 22.1076 22.1414 20.9427 23.0315C19.7779 23.9215 18.94 25.1717 18.5596 26.5874C18.1793 28.0032 18.2777 29.505 18.8397 30.8589C19.4017 32.2129 20.3956 33.343 21.6667 34.0733V38.795C21.6665 39.0328 21.737 39.2652 21.869 39.4629C22.001 39.6606 22.1887 39.8147 22.4084 39.9057C22.628 39.9967 22.8697 40.0205 23.1029 39.9741C23.3361 39.9277 23.5503 39.8132 23.7183 39.645L25 38.365L26.2817 39.645C26.4497 39.8132 26.6639 39.9277 26.8971 39.9741C27.1302 40.0205 27.372 39.9967 27.5916 39.9057C27.8112 39.8147 27.999 39.6606 28.131 39.4629C28.263 39.2652 28.3334 39.0328 28.3333 38.795V34.0733C29.6044 33.343 30.5983 32.2129 31.1603 30.8589C31.7222 29.505 31.8207 28.0032 31.4403 26.5874C31.06 25.1717 30.2221 23.9215 29.0573 23.0315C27.8924 22.1414 26.4659 21.6616 25 21.6667Z" fill="#2E353A"/>
<path d="M15 28.3333C14.998 26.5773 15.4589 24.8518 16.3363 23.3307C17.2138 21.8096 18.4767 20.5467 19.9979 19.6694C21.519 18.792 23.2446 18.3312 25.0006 18.3334C26.7566 18.3355 28.481 18.8006 30 19.6817V8.33333C29.9974 6.12401 29.1185 4.00593 27.5563 2.4437C25.9941 0.88147 23.876 0.00264643 21.6667 0L8.33333 0C6.12401 0.00264643 4.00593 0.88147 2.4437 2.4437C0.88147 4.00593 0.00264643 6.12401 0 8.33333V28.3333C0.00264643 30.5427 0.88147 32.6607 2.4437 34.223C4.00593 35.7852 6.12401 36.664 8.33333 36.6667H18.3333V35.7667C17.2851 34.8326 16.4463 33.6875 15.8718 32.4064C15.2973 31.1254 15.0002 29.7373 15 28.3333ZM8.33333 6.66667H21.6667C22.1087 6.66667 22.5326 6.84226 22.8452 7.15482C23.1577 7.46738 23.3333 7.8913 23.3333 8.33333C23.3333 8.77536 23.1577 9.19928 22.8452 9.51184C22.5326 9.8244 22.1087 10 21.6667 10H8.33333C7.89131 10 7.46738 9.8244 7.15482 9.51184C6.84226 9.19928 6.66667 8.77536 6.66667 8.33333C6.66667 7.8913 6.84226 7.46738 7.15482 7.15482C7.46738 6.84226 7.89131 6.66667 8.33333 6.66667ZM8.33333 13.3333H21.6667C22.1087 13.3333 22.5326 13.5089 22.8452 13.8215C23.1577 14.134 23.3333 14.558 23.3333 15C23.3333 15.442 23.1577 15.8659 22.8452 16.1785C22.5326 16.4911 22.1087 16.6667 21.6667 16.6667H8.33333C7.89131 16.6667 7.46738 16.4911 7.15482 16.1785C6.84226 15.8659 6.66667 15.442 6.66667 15C6.66667 14.558 6.84226 14.134 7.15482 13.8215C7.46738 13.5089 7.89131 13.3333 8.33333 13.3333ZM13.3333 23.3333H8.33333C7.89131 23.3333 7.46738 23.1577 7.15482 22.8452C6.84226 22.5326 6.66667 22.1087 6.66667 21.6667C6.66667 21.2246 6.84226 20.8007 7.15482 20.4882C7.46738 20.1756 7.89131 20 8.33333 20H13.3333C13.7754 20 14.1993 20.1756 14.5118 20.4882C14.8244 20.8007 15 21.2246 15 21.6667C15 22.1087 14.8244 22.5326 14.5118 22.8452C14.1993 23.1577 13.7754 23.3333 13.3333 23.3333Z" fill="#2E353A"/>
</svg>
