<svg width="26" height="25" viewBox="0 0 26 25" fill="none" xmlns="http://www.w3.org/2000/svg">
<g clip-path="url(#clip0_46_70)">
<path d="M20.7492 3.17731C20.621 2.63422 20.3821 2.1225 20.047 1.67329C19.7119 1.22407 19.2876 0.846747 18.7999 0.564255C18.3123 0.281764 17.7714 0.100011 17.2103 0.0300501C16.6492 -0.0399113 16.0794 0.00338093 15.5358 0.157294L13.7382 0.664057C13.2829 0.793081 12.8635 1.02302 12.5121 1.33631C12.1606 1.02302 11.7412 0.793081 11.2859 0.664057L9.48831 0.157294C8.94501 0.00418312 8.37582 -0.0384919 7.81528 0.0318591C7.25474 0.10221 6.71455 0.28412 6.22749 0.566547C5.74044 0.848974 5.31667 1.22603 4.98193 1.67482C4.64718 2.12361 4.40843 2.63479 4.28017 3.17731C3.08088 3.39242 1.99597 4.01502 1.21402 4.9369C0.432059 5.85878 0.00249823 7.02164 0 8.22336L0 15.4188C0.00165561 16.7814 0.55145 18.0877 1.52879 19.0512C2.50612 20.0147 3.8312 20.5567 5.21336 20.5584H11.4694V22.6142H8.34137C8.06484 22.6142 7.79963 22.7225 7.60409 22.9153C7.40855 23.108 7.2987 23.3695 7.2987 23.6421C7.2987 23.9147 7.40855 24.1762 7.60409 24.369C7.79963 24.5617 8.06484 24.67 8.34137 24.67H16.6827C16.9593 24.67 17.2245 24.5617 17.42 24.369C17.6156 24.1762 17.7254 23.9147 17.7254 23.6421C17.7254 23.3695 17.6156 23.108 17.42 22.9153C17.2245 22.7225 16.9593 22.6142 16.6827 22.6142H13.5547V20.5584H19.8108C21.1929 20.5567 22.518 20.0147 23.4953 19.0512C24.4727 18.0877 25.0225 16.7814 25.0241 15.4188V8.22336C25.0218 7.02237 24.593 5.8601 23.8121 4.93832C23.0312 4.01655 21.9475 3.39349 20.7492 3.17731ZM13.5547 3.6296C13.5548 3.40635 13.6287 3.1892 13.765 3.01098C13.9014 2.83276 14.0929 2.70316 14.3107 2.64177L16.1093 2.13501C16.4197 2.04748 16.7464 2.0322 17.0638 2.09036C17.3812 2.14852 17.6806 2.27853 17.9383 2.47016C18.1961 2.66179 18.4052 2.90979 18.5492 3.19465C18.6932 3.4795 18.7681 3.79343 18.7681 4.11169V8.15963C18.7666 8.60569 18.6185 9.03927 18.3459 9.3953C18.0733 9.75133 17.691 10.0106 17.2562 10.1343L13.5547 11.1766V3.6296ZM7.09017 2.46702C7.34742 2.27609 7.64617 2.14671 7.96283 2.08909C8.27949 2.03147 8.6054 2.04719 8.91484 2.13501L10.7134 2.64177C10.9312 2.70316 11.1227 2.83276 11.2591 3.01098C11.3955 3.1892 11.4693 3.40635 11.4694 3.6296V11.1766L7.7679 10.1343C7.33316 10.0106 6.9508 9.75133 6.6782 9.3953C6.40561 9.03927 6.25747 8.60569 6.25603 8.15963V4.11169C6.25497 3.79235 6.32988 3.47721 6.47474 3.19158C6.61961 2.90595 6.83039 2.65779 7.09017 2.46702ZM22.9388 15.4188C22.9388 16.2366 22.6092 17.021 22.0226 17.5993C21.436 18.1776 20.6404 18.5025 19.8108 18.5025H5.21336C4.38376 18.5025 3.58813 18.1776 3.00152 17.5993C2.4149 17.021 2.08534 16.2366 2.08534 15.4188V8.22336C2.08802 7.58784 2.28979 6.96865 2.66307 6.45051C3.03635 5.93237 3.5629 5.54058 4.17069 5.32874V8.15963C4.17324 9.05221 4.46933 9.9199 5.01452 10.6325C5.55971 11.3451 6.3246 11.8643 7.19443 12.112L10.7927 13.1265C11.9172 13.4425 13.109 13.4425 14.2335 13.1265L17.8318 12.112C18.7012 11.8639 19.4656 11.3446 20.0104 10.632C20.5552 9.91944 20.851 9.05194 20.8534 8.15963V5.32874C21.4612 5.54058 21.9878 5.93237 22.361 6.45051C22.7343 6.96865 22.9361 7.58784 22.9388 8.22336V15.4188Z" fill="black"/>
</g>
<defs>
<clipPath id="clip0_46_70">
<rect width="25.0241" height="24.67" fill="white"/>
</clipPath>
</defs>
</svg>
