<svg width="113" height="21" viewBox="0 0 113 21" fill="none" xmlns="http://www.w3.org/2000/svg">
<path d="M22.8829 0.972341C22.273 0.374083 21.4518 0.0392309 20.5968 0.0400405H13.3912C12.5361 0.0392309 11.715 0.374083 11.105 0.972341L0.126301 11.7862C0.0478088 11.8633 0.00273527 11.9681 0.000769034 12.078C-0.0011972 12.1879 0.0400969 12.2943 0.115781 12.3741L2.57443 14.9694C2.6142 15.0109 2.66181 15.0441 2.7145 15.0671C2.76718 15.09 2.82392 15.1024 2.88141 15.1034C2.9389 15.1043 2.99601 15.0939 3.04945 15.0727C3.10289 15.0516 3.1516 15.02 3.19277 14.9799L16.994 1.3818L30.7952 14.9757C30.8364 15.0158 30.8851 15.0474 30.9385 15.0685C30.992 15.0897 31.0491 15.1001 31.1066 15.0992C31.164 15.0982 31.2208 15.0858 31.2735 15.0629C31.3262 15.0399 31.3738 15.0067 31.4135 14.9652L33.8722 12.3699C33.9492 12.2914 33.9924 12.1859 33.9924 12.076C33.9924 11.966 33.9492 11.8605 33.8722 11.782L22.8829 0.972341Z" fill="#75C044"/>
<path d="M20.5968 9.65069H13.3912C12.5356 9.65023 11.7139 9.98499 11.1029 10.583L4.83539 16.7563C4.75689 16.8334 4.71183 16.9382 4.70986 17.0482C4.70789 17.1581 4.74919 17.2644 4.82487 17.3443L7.28352 19.9396C7.32314 19.9813 7.37069 20.0147 7.4234 20.0378C7.47611 20.061 7.53291 20.0734 7.59048 20.0744C7.64805 20.0754 7.70524 20.0649 7.7587 20.0435C7.81216 20.0222 7.86083 19.9904 7.90186 19.9501L14.7162 13.2308V20.58C14.7162 20.6914 14.7605 20.7982 14.8394 20.877C14.9183 20.9557 15.0253 21 15.1369 21H18.8406C18.9522 21 19.0592 20.9557 19.138 20.877C19.2169 20.7982 19.2612 20.6914 19.2612 20.58V13.2308L26.0777 19.9501C26.1186 19.9904 26.1671 20.0221 26.2204 20.0434C26.2736 20.0647 26.3307 20.0752 26.3881 20.0742C26.4455 20.0732 26.5021 20.0608 26.5546 20.0377C26.6071 20.0146 26.6545 19.9812 26.694 19.9396L29.161 17.3401C29.2367 17.2602 29.278 17.1539 29.276 17.044C29.2741 16.934 29.229 16.8293 29.1505 16.7521L22.883 10.5788C22.273 9.98053 21.4519 9.64568 20.5968 9.64649" fill="#75C044"/>
<path d="M90.197 9.50186H87.703C87.703 8.11455 86.4766 7.18681 84.2468 7.18681C82.2311 7.18681 80.8551 7.94327 80.8551 9.07368C80.8551 10.3582 82.6155 10.6208 84.1764 10.8606L85.1064 11.0033C87.436 11.3602 90.7104 11.8597 90.7104 15.1453C90.7104 17.82 88.5363 19.3244 84.4815 19.3244C80.2536 19.3244 78.1118 17.6916 78.1118 14.7571H80.6174C80.6174 16.3185 81.8555 17.1863 84.4815 17.1863C86.8522 17.1863 88.2282 16.4841 88.2282 15.2195C88.2282 13.738 86.3534 13.4126 84.5519 13.11L83.6248 12.9559C81.5064 12.6076 78.367 12.0995 78.367 9.13932C78.367 6.64445 80.6057 5.0459 84.2556 5.0459C88.0522 5.0459 90.2057 6.77862 90.2057 9.51328" fill="#606161"/>
<path d="M47.9461 5.0459C44.0269 5.0459 41.5592 7.01147 41.5592 10.1311H44.1285C44.1285 8.42388 45.3043 7.30069 47.9026 7.30069C50.437 7.30069 52.025 8.70468 52.025 10.923V11.2375H46.6194C43.2402 11.2375 41.1557 12.765 41.1557 15.2416C41.1557 17.7182 43.1879 19.3244 46.2565 19.3244C48.6167 19.3244 50.4544 18.4314 51.4415 16.7691C51.4753 16.7117 51.5277 16.6666 51.5906 16.6409C51.6536 16.6152 51.7235 16.6103 51.7896 16.6269C51.8558 16.6435 51.9144 16.6808 51.9564 16.7329C51.9984 16.785 52.0215 16.8491 52.0221 16.9151V18.9565H54.5943V10.923C54.5943 7.24454 52.0918 5.0459 47.9461 5.0459ZM52.0105 13.7C52.0105 15.7218 49.9086 17.1566 46.9358 17.1566C44.8398 17.1566 43.6843 16.4462 43.6843 15.1546C43.6843 13.964 44.6888 13.3266 46.5875 13.3266H52.0163L52.0105 13.7Z" fill="#606161"/>
<path d="M98.3834 5.0459C94.2987 5.0459 91.5503 7.90159 91.5503 12.1641C91.5503 16.4266 94.325 19.3244 98.4592 19.3244C101.759 19.3244 104.189 17.502 104.919 14.4666H102.34C101.651 16.1935 100.394 17.078 98.5234 17.078C96.2419 17.078 94.6838 15.7498 94.255 13.5372C94.2456 13.482 94.2489 13.4255 94.2646 13.3716C94.2803 13.3178 94.3079 13.2678 94.3457 13.2253C94.3835 13.1828 94.4305 13.1488 94.4833 13.1255C94.5362 13.1023 94.5936 13.0904 94.6517 13.0907H104.945C104.968 12.7285 104.989 12.4393 104.989 12.1276C104.989 7.80893 102.41 5.0459 98.3834 5.0459ZM101.835 10.9426H94.7305C94.6686 10.942 94.6076 10.9277 94.5522 10.901C94.4968 10.8743 94.4484 10.8359 94.4107 10.7885C94.3731 10.7412 94.3471 10.6862 94.3348 10.6278C94.3224 10.5693 94.3241 10.509 94.3396 10.4512C94.8531 8.4688 96.3119 7.29227 98.3951 7.29227C100.478 7.29227 101.774 8.41545 102.226 10.4625C102.24 10.5195 102.24 10.5788 102.227 10.636C102.214 10.6933 102.188 10.7469 102.15 10.7931C102.113 10.8392 102.065 10.8766 102.01 10.9025C101.956 10.9284 101.896 10.9421 101.835 10.9426Z" fill="#606161"/>
<path d="M77.2718 16.1536V11.5458C77.2718 7.51395 75.5698 5.0459 72.6763 5.0459C70.5686 5.0459 68.9715 6.37065 68.2226 8.59968C68.2007 8.65806 68.1618 8.70831 68.1112 8.74376C68.0605 8.77921 68.0004 8.7982 67.9389 8.7982C67.8774 8.7982 67.8173 8.77921 67.7666 8.74376C67.716 8.70831 67.6771 8.65806 67.6552 8.59968C66.9971 6.35049 65.522 5.05741 63.4341 5.05741C61.6328 5.05741 60.2002 6.0337 59.3548 7.71843C59.324 7.77862 59.2742 7.82665 59.2135 7.85493C59.1527 7.88321 59.0844 7.89014 59.0193 7.87462C58.9543 7.85909 58.8961 7.822 58.8542 7.76921C58.8122 7.71641 58.7887 7.65092 58.7875 7.58308V5.42028H56.2741V19.31H58.7875V11.8021C58.7875 8.99134 60.1349 7.35556 62.393 7.35556C64.4894 7.35556 65.5134 8.76671 65.5134 11.5487V19.3244H68.0268V11.8021C68.0268 8.99134 69.3743 7.35556 71.6324 7.35556C73.7287 7.35556 74.7528 8.76671 74.7528 11.5487V19.3244H77.2662L77.2718 16.1536Z" fill="#606161"/>
<path d="M109.6 6.76652H112.548V4.48327H109.6C109.496 4.48327 109.397 4.44207 109.324 4.36874C109.251 4.29541 109.21 4.19596 109.21 4.09226V1.68628H106.669V15.4771C106.669 15.9826 106.768 16.4831 106.961 16.9501C107.154 17.417 107.437 17.8413 107.793 18.1986C108.15 18.5558 108.573 18.8392 109.039 19.0323C109.505 19.2255 110.004 19.3248 110.508 19.3244H112.548V16.7786H110.511C110.166 16.7786 109.836 16.6414 109.593 16.3974C109.35 16.1533 109.213 15.8223 109.213 15.4771V7.16038C109.212 7.10879 109.222 7.05763 109.242 7.00986C109.261 6.96209 109.29 6.91866 109.326 6.88204C109.362 6.84543 109.405 6.81638 109.453 6.79655C109.5 6.77672 109.551 6.76651 109.603 6.76652" fill="#606161"/>
</svg>
