<svg width="26" height="25" viewBox="0 0 26 25" fill="none" xmlns="http://www.w3.org/2000/svg">
<path d="M24.0863 10.7223C24.9396 11.6463 25.4097 12.8331 25.4097 14.0654V19.1201C25.4097 21.9073 23.0349 24.1748 20.116 24.1748H5.29368C2.37474 24.1748 -7.62939e-06 21.9073 -7.62939e-06 19.1201V14.0654C-7.62939e-06 11.2783 2.37474 9.01077 5.29368 9.01077H9.52862C10.1141 9.01077 10.5874 9.46367 10.5874 10.0217C10.5874 10.5797 10.1141 11.0326 9.52862 11.0326H5.29368C3.54253 11.0326 2.11747 12.3934 2.11747 14.0654V19.1201C2.11747 20.7922 3.54253 22.1529 5.29368 22.1529H20.116C21.8671 22.1529 23.2922 20.7922 23.2922 19.1201V14.0654C23.2922 13.3265 23.0095 12.6137 22.4981 12.0598C22.1117 11.6412 22.153 11.0023 22.5924 10.6323C23.0296 10.2643 23.6988 10.3038 24.0863 10.7223ZM5.29368 16.5928C5.29368 17.4298 6.00515 18.1092 6.88178 18.1092C7.75841 18.1092 8.46989 17.4298 8.46989 16.5928C8.46989 15.7557 7.75841 15.0764 6.88178 15.0764C6.00515 15.0764 5.29368 15.7557 5.29368 16.5928ZM12.1755 18.1092C13.0521 18.1092 13.7636 17.4298 13.7636 16.5928C13.7636 15.7557 13.0521 15.0764 12.1755 15.0764C11.2988 15.0764 10.5874 15.7557 10.5874 16.5928C10.5874 17.4298 11.2988 18.1092 12.1755 18.1092ZM12.7048 12.0436V10.4402C12.7048 9.36055 13.1453 8.34456 13.9457 7.58131L19.9879 1.8119C21.2266 0.629106 23.2403 0.629106 24.479 1.8119C25.0783 2.38409 25.4097 3.14634 25.4097 3.95609C25.4097 4.76585 25.0783 5.5281 24.479 6.1013L18.4368 11.8707C17.6375 12.634 16.5735 13.0555 15.4427 13.0555H13.7636C13.1781 13.0555 12.7048 12.6026 12.7048 12.0446V12.0436ZM14.8223 11.0326H15.4427C16.0081 11.0326 16.5396 10.8224 16.9398 10.4402L22.982 4.67083C23.1821 4.47976 23.2922 4.22601 23.2922 3.95609C23.2922 3.68617 23.1821 3.43243 22.982 3.24136C22.568 2.84609 21.8989 2.8471 21.4849 3.24136L15.4427 9.01077C15.0489 9.38785 14.8223 9.90848 14.8223 10.4402V11.0326Z" fill="#75C044"/>
</svg>
