<svg width="48" height="47" viewBox="0 0 48 47" fill="none" xmlns="http://www.w3.org/2000/svg">
<path d="M23.9838 10.1477C24.4219 10.1477 24.714 9.93409 24.714 9.61364V7.47727C24.714 7.15682 24.4219 6.94318 23.9838 6.94318C23.5456 6.94318 23.2536 7.15682 23.2536 7.47727V9.61364C23.2536 9.93409 23.5456 10.1477 23.9838 10.1477ZM45.8905 22.9659H42.9696C42.5314 22.9659 42.2394 23.1795 42.2394 23.5C42.2394 23.8205 42.5314 24.0341 42.9696 24.0341H45.8905C46.3286 24.0341 46.6207 23.8205 46.6207 23.5C46.6207 23.1795 46.3286 22.9659 45.8905 22.9659ZM4.99797 22.9659H2.07708C1.63895 22.9659 1.34686 23.1795 1.34686 23.5C1.34686 23.8205 1.63895 24.0341 2.07708 24.0341H4.99797C5.43611 24.0341 5.7282 23.8205 5.7282 23.5C5.7282 23.1795 5.43611 22.9659 4.99797 22.9659ZM10.0365 33.0602L7.84584 34.7159C7.55375 34.9295 7.55375 35.25 7.84584 35.4636C7.99189 35.5705 8.21095 35.6239 8.357 35.6239C8.50304 35.6239 8.72211 35.5705 8.86815 35.4636L11.1318 33.808C11.4239 33.5943 11.4239 33.2739 11.1318 33.0602C10.8398 32.8466 10.3286 32.8466 10.0365 33.0602ZM37.931 33.0602C37.6389 32.8466 37.2008 32.8466 36.9087 33.0602C36.6166 33.2739 36.6166 33.5943 36.9087 33.808L39.1724 35.4636C39.3185 35.5705 39.5375 35.6239 39.6836 35.6239C39.8296 35.6239 40.0487 35.5705 40.1947 35.4636C40.4868 35.25 40.4868 34.9295 40.1947 34.7159L37.931 33.0602ZM5.7282 7.47727C6.02028 7.47727 6.23935 7.37045 6.3854 7.21023C6.53144 7.05 6.53144 6.83636 6.3854 6.67614L1.4929 0.373864C1.34686 0.213636 1.4929 0 1.78499 0H8.79513C8.94118 0 9.0142 0.053409 9.08722 0.106818L16.5355 9.18636C16.6815 9.34659 16.5355 9.56023 16.2434 9.56023H10.8398C10.6207 9.56023 10.3286 9.66705 10.1826 9.82727C10.0365 9.9875 10.0365 10.2011 10.1826 10.3614L15.9513 18.8C16.1704 19.067 15.6592 19.3341 15.3671 19.1205L0.105476 7.90455C-0.11359 7.74432 0.032455 7.47727 0.324544 7.47727H5.7282ZM29.8256 42.7273C29.8256 45.0773 27.1968 47 23.9838 47C20.7708 47 18.142 45.0773 18.142 42.7273V40.5909H29.8256V42.7273ZM21.0629 29.9091H18.8722C18.288 29.9091 17.7039 29.7489 17.3387 29.4284C16.9006 29.1614 16.6815 28.7341 16.6815 28.3068C16.6815 27.3989 17.6308 26.7045 18.8722 26.7045C20.1136 26.7045 21.0629 27.3989 21.0629 28.3068V29.9091ZM23.9838 30.9773H25.4442V39.5227H22.5233V30.9773H23.9838ZM39.3185 23.5534C39.3185 26.1705 38.0771 28.7341 35.7404 30.7636C32.9655 33.167 31.286 36.2114 30.8479 39.5227H26.9047V30.9773H29.0953C30.0446 30.9773 30.9939 30.7102 31.6511 30.1761C32.3083 29.6955 32.7465 29.0011 32.7465 28.3068C32.7465 26.8114 31.14 25.6364 29.0953 25.6364C27.0507 25.6364 25.4442 26.8114 25.4442 28.3068V29.9091H22.5233V28.3068C22.5233 26.8114 20.9168 25.6364 18.8722 25.6364C16.8276 25.6364 15.2211 26.8114 15.2211 28.3068C15.2211 29.0011 15.5862 29.6955 16.3164 30.1761C16.9736 30.6568 17.9229 30.9773 18.8722 30.9773H21.0629V39.5227H17.1197C16.6815 36.3716 14.856 33.2205 11.9351 30.4966C9.81744 28.5205 8.64909 26.0636 8.64909 23.5534C8.64909 21.417 9.52536 19.3341 11.1318 17.5182L19.0913 23.3398C19.2373 23.4466 19.3834 23.5 19.6024 23.5C19.7485 23.5 19.8945 23.4466 20.0406 23.3932C20.3327 23.233 20.4057 22.9659 20.2596 22.6989L14.7099 14.5807C17.1927 13.192 20.1136 12.3375 23.2536 12.2307C26.8316 12.1239 30.4097 12.925 33.2576 14.5273L27.7079 22.6455C27.5619 22.8591 27.6349 23.1795 27.927 23.3398C28.073 23.3932 28.2191 23.4466 28.3651 23.4466C28.5842 23.4466 28.7302 23.3932 28.8763 23.2864L36.9087 17.4114C38.4422 19.2807 39.3185 21.3636 39.3185 23.5534ZM26.9047 29.9091V28.3068C26.9047 27.3989 27.854 26.7045 29.0953 26.7045C30.3367 26.7045 31.286 27.3989 31.286 28.3068C31.286 28.7341 31.0669 29.1614 30.6288 29.4284C30.2637 29.7489 29.6795 29.9091 29.0953 29.9091H26.9047ZM32.6004 19.1205C32.3083 19.3341 31.8702 19.067 32.0162 18.8L37.785 10.3614C37.931 10.2011 37.858 9.9875 37.785 9.82727C37.712 9.66705 37.3469 9.61364 37.1278 9.61364H31.7241C31.4321 9.61364 31.286 9.4 31.4321 9.23977L38.8803 0.160227C38.9534 0.0534092 39.0994 0 39.1724 0H46.1826C46.4747 0 46.6207 0.213636 46.4747 0.373864L41.5822 6.67614C41.4361 6.83636 41.4361 7.05 41.5822 7.21023C41.7282 7.37045 41.9473 7.47727 42.2394 7.47727H47.643C47.9351 7.47727 48.1542 7.74432 47.8621 7.90455L32.6004 19.1205Z" fill="#006257"/>
</svg>
