<svg width="47" height="47" viewBox="0 0 47 47" fill="none" xmlns="http://www.w3.org/2000/svg">
<path d="M46.5082 2.86532L40.8883 8.48518C40.7993 8.0105 40.5972 7.56426 40.2991 7.18428C39.8513 6.62491 39.2175 6.24488 38.5131 6.11336L44.1347 0.491821C44.4494 0.177076 44.8763 0.000253328 45.3214 0.000253328C45.7665 0.000253328 46.1934 0.177076 46.5082 0.491821C46.8229 0.806567 46.9997 1.23345 46.9997 1.67857C46.9997 2.12369 46.8229 2.55058 46.5082 2.86532ZM33.9088 9.3446C35.2233 9.13676 36.5301 8.88257 37.8266 8.58253C37.9081 8.56211 37.9935 8.56312 38.0744 8.58546C38.1554 8.6078 38.2292 8.65071 38.2887 8.71002C38.3481 8.76932 38.3913 8.84301 38.4138 8.92391C38.4364 9.00482 38.4377 9.09018 38.4175 9.17171C38.1174 10.4683 37.8632 11.775 37.6554 13.0895C35.8174 13.5259 33.7393 14.2259 31.861 15.139C32.7486 13.2862 33.4351 11.3437 33.9088 9.3446ZM12.7018 13.0912C12.4939 11.7761 12.2397 10.4688 11.9397 9.17171C11.9195 9.09018 11.9208 9.00482 11.9433 8.92391C11.9659 8.84301 12.009 8.76932 12.0685 8.71002C12.128 8.65071 12.2018 8.6078 12.2827 8.58546C12.3637 8.56312 12.4491 8.56211 12.5305 8.58253C13.8365 8.88971 15.1424 9.1331 16.4483 9.3446C16.8848 11.1826 17.5847 13.2607 18.4979 15.139C16.6444 14.2517 14.7013 13.5651 12.7018 13.0912ZM16.4483 34.2982C15.1424 34.5097 13.8365 34.7531 12.5305 35.0603C12.4491 35.0807 12.3637 35.0797 12.2827 35.0574C12.2018 35.035 12.128 34.9921 12.0685 34.9328C12.009 34.8735 11.9659 34.7998 11.9433 34.7189C11.9208 34.638 11.9195 34.5527 11.9397 34.4711C12.2469 33.1652 12.4903 31.8593 12.7034 30.5533C14.7022 30.0777 16.6446 29.3907 18.4979 28.5038C17.609 30.3563 16.9219 32.2989 16.4483 34.2982ZM37.6554 30.5517C37.8669 31.8576 38.1103 33.1635 38.4175 34.4695C38.4377 34.551 38.4364 34.6364 38.4138 34.7173C38.3913 34.7982 38.3481 34.8718 38.2887 34.9312C38.2292 34.9905 38.1554 35.0334 38.0744 35.0557C37.9935 35.078 37.9081 35.0791 37.8266 35.0586C36.5301 34.7586 35.2233 34.5044 33.9088 34.2966C33.4332 32.2978 32.7462 30.3554 31.8593 28.5021C33.7376 29.417 35.8174 30.1169 37.6554 30.5517ZM6.59008 42.7834C6.72497 43.2796 6.74347 43.8002 6.64417 44.3048C6.54486 44.8093 6.33043 45.2841 6.01756 45.6921C5.70469 46.1002 5.30184 46.4305 4.84039 46.6573C4.37894 46.8842 3.87135 47.0015 3.35716 47C2.46679 47 1.61288 46.6463 0.983298 46.0167C0.353711 45.3871 1.36357e-05 44.5332 1.36357e-05 43.6428C-0.00145546 43.1287 0.115803 42.6211 0.342656 42.1596C0.569508 41.6982 0.89983 41.2953 1.30789 40.9824C1.71595 40.6696 2.19073 40.4551 2.69525 40.3558C3.19976 40.2565 3.72039 40.275 4.21658 40.4099L9.47051 35.156C9.57831 35.7459 9.8634 36.289 10.2878 36.7128C10.7121 37.1365 11.2556 37.4208 11.8457 37.5278L6.59008 42.7834ZM25.1786 14.2679C26.4968 14.2759 27.7894 14.6326 28.9251 15.3019C30.7111 12.2754 31.8929 7.89432 31.8929 5.875C31.8929 2.63536 28.8882 0 25.1786 0C21.4689 0 18.4643 2.63536 18.4643 5.875C18.4643 7.89432 19.646 12.2754 21.432 15.3019C22.5677 14.6326 23.8604 14.2759 25.1786 14.2679ZM25.1786 6.01936L27.5521 8.39285L25.1786 10.7664L22.8051 8.39285L25.1786 6.01936ZM25.1786 29.375C23.8604 29.367 22.5677 29.0102 21.432 28.341C19.646 31.3675 18.4643 35.7485 18.4643 37.7678C18.4643 41.0075 21.4689 43.6428 25.1786 43.6428C28.8882 43.6428 31.8929 41.0075 31.8929 37.7678C31.8929 35.7485 30.7111 31.3675 28.9251 28.341C27.7894 29.0102 26.4968 29.367 25.1786 29.375ZM25.1786 37.6235L22.8051 35.25L25.1786 32.8765L27.5521 35.25L25.1786 37.6235ZM17.625 21.8214C17.625 20.4517 18.0195 19.1844 18.659 18.0749C15.6325 16.2889 11.2515 15.1071 9.23215 15.1071C5.99251 15.1071 3.35716 18.1118 3.35716 21.8214C3.35716 25.5311 5.99251 28.5357 9.23215 28.5357C11.2515 28.5357 15.6325 27.354 18.659 25.568C17.9898 24.4323 17.633 23.1396 17.625 21.8214ZM11.75 24.1949L9.37651 21.8214L11.75 19.4479L14.1235 21.8214L11.75 24.1949ZM41.125 15.1071C39.1057 15.1071 34.7246 16.2889 31.6981 18.0749C32.3377 19.1844 32.7321 20.4517 32.7321 21.8214C32.7321 23.1911 32.3377 24.4585 31.6981 25.568C34.7246 27.354 39.1057 28.5357 41.125 28.5357C44.3646 28.5357 47 25.5311 47 21.8214C47 18.1118 44.3646 15.1071 41.125 15.1071ZM38.6071 24.1949L36.2336 21.8214L38.6071 19.4479L40.9806 21.8214L38.6071 24.1949ZM25.1786 16.7857C23.843 16.7857 22.5622 17.3163 21.6178 18.2606C20.6734 19.205 20.1429 20.4859 20.1429 21.8214C20.1429 23.157 20.6734 24.4378 21.6178 25.3822C22.5622 26.3266 23.843 26.8571 25.1786 26.8571C26.5141 26.8571 27.795 26.3266 28.7394 25.3822C29.6837 24.4378 30.2143 23.157 30.2143 21.8214C30.2143 20.4859 29.6837 19.205 28.7394 18.2606C27.795 17.3163 26.5141 16.7857 25.1786 16.7857ZM25.1786 24.1949L22.8051 21.8214L25.1786 19.4479L27.5521 21.8214L25.1786 24.1949Z" fill="#006257"/>
</svg>
