<svg width="54" height="54" viewBox="0 0 54 54" fill="none" xmlns="http://www.w3.org/2000/svg">
<path d="M43.7631 13.9075C44.2827 13.8833 44.7713 13.6537 45.1215 13.2691C45.4718 12.8846 45.6549 12.3767 45.6307 11.8572C45.6064 11.3376 45.3768 10.849 44.9923 10.4987C44.6078 10.1485 44.0999 9.96535 43.5803 9.98959L42.8458 10.0234L42.812 9.28884C42.8 9.03159 42.7375 8.77921 42.6279 8.54613C42.5184 8.31305 42.364 8.10383 42.1736 7.93041C41.9832 7.75699 41.7606 7.62277 41.5183 7.53541C41.276 7.44805 41.0189 7.40927 40.7617 7.42127C40.5044 7.43328 40.252 7.49583 40.019 7.60537C39.7859 7.71491 39.5767 7.86928 39.4032 8.05967C39.2298 8.25007 39.0956 8.47276 39.0082 8.71502C38.9209 8.95729 38.8821 9.21439 38.8941 9.47165L39.1107 14.1241L43.7631 13.9075ZM44.6697 19.6832L44.6434 20.2497L44.0768 20.2233C43.8778 20.2129 43.6787 20.242 43.491 20.3088C43.3033 20.3757 43.1306 20.479 42.9829 20.6128C42.8352 20.7466 42.7155 20.9083 42.6305 21.0885C42.5455 21.2688 42.497 21.4641 42.4878 21.6631C42.4786 21.8622 42.5088 22.0611 42.5767 22.2485C42.6447 22.4358 42.749 22.6079 42.8836 22.7548C43.0183 22.9017 43.1807 23.0205 43.3614 23.1044C43.5422 23.1883 43.7377 23.2357 43.9369 23.2437L47.523 23.4101L47.6893 19.824C47.6985 19.6257 47.6686 19.4276 47.6013 19.2408C47.534 19.0541 47.4305 18.8825 47.2969 18.7358C47.1632 18.589 47.002 18.4701 46.8223 18.3856C46.6427 18.3012 46.4482 18.253 46.2499 18.2438C46.0516 18.2345 45.8535 18.2644 45.6668 18.3318C45.4801 18.3991 45.3084 18.5025 45.1617 18.6362C45.015 18.7699 44.896 18.9311 44.8116 19.1107C44.7272 19.2904 44.679 19.4849 44.6697 19.6832Z" fill="#006257"/>
<path d="M37.3987 4.8826C37.9672 4.8826 38.4281 4.42176 38.4281 3.8533C38.4281 3.28483 37.9672 2.82399 37.3987 2.82399C36.8303 2.82399 36.3694 3.28483 36.3694 3.8533C36.3694 4.42176 36.8303 4.8826 37.3987 4.8826Z" fill="#006257"/>
<path d="M47.6918 7.94828C48.2602 7.94828 48.7211 7.48744 48.7211 6.91897C48.7211 6.3505 48.2602 5.88967 47.6918 5.88967C47.1233 5.88967 46.6625 6.3505 46.6625 6.91897C46.6625 7.48744 47.1233 7.94828 47.6918 7.94828Z" fill="#006257"/>
<path d="M38.428 19.2706C38.9965 19.2706 39.4573 18.8098 39.4573 18.2413C39.4573 17.6728 38.9965 17.212 38.428 17.212C37.8596 17.212 37.3987 17.6728 37.3987 18.2413C37.3987 18.8098 37.8596 19.2706 38.428 19.2706Z" fill="#006257"/>
<path d="M10.4483 13.9075L15.1007 14.1241L15.3173 9.47164C15.3317 8.95796 15.1439 8.45913 14.7944 8.08245C14.4448 7.70577 13.9614 7.48132 13.4481 7.45737C12.9347 7.43342 12.4325 7.61188 12.0494 7.95437C11.6663 8.29687 11.4329 8.77604 11.3994 9.28884L11.3656 10.0234L10.6311 9.98959C10.1115 9.96535 9.60364 10.1485 9.21912 10.4987C8.8346 10.849 8.60496 11.3376 8.58072 11.8572C8.55648 12.3767 8.73962 12.8846 9.08986 13.2691C9.4401 13.6536 9.92874 13.8833 10.4483 13.9075ZM6.52129 19.8231L6.68763 23.4092L10.2737 23.2429C10.4728 23.2348 10.6684 23.1875 10.8492 23.1036C11.0299 23.0197 11.1923 22.9008 11.327 22.7539C11.4616 22.6071 11.5659 22.435 11.6338 22.2476C11.7018 22.0603 11.732 21.8614 11.7228 21.6623C11.7135 21.4632 11.6651 21.268 11.5801 21.0877C11.4951 20.9074 11.3754 20.7458 11.2277 20.6119C11.08 20.4781 10.9073 20.3749 10.7196 20.308C10.5318 20.2412 10.3327 20.2121 10.1337 20.2225L9.56721 20.2489L9.54086 19.6823C9.53621 19.4809 9.49132 19.2823 9.40884 19.0985C9.32636 18.9146 9.20794 18.7491 9.06056 18.6116C8.91318 18.4742 8.73981 18.3676 8.55064 18.2981C8.36146 18.2286 8.16031 18.1976 7.959 18.207C7.75769 18.2164 7.56028 18.266 7.3784 18.3527C7.19651 18.4395 7.03381 18.5618 6.89986 18.7124C6.76591 18.8629 6.66341 19.0388 6.5984 19.2295C6.53339 19.4203 6.50717 19.6221 6.52129 19.8231Z" fill="#006257"/>
<path d="M16.8127 4.8826C17.3812 4.8826 17.842 4.42176 17.842 3.8533C17.842 3.28483 17.3812 2.82399 16.8127 2.82399C16.2442 2.82399 15.7834 3.28483 15.7834 3.8533C15.7834 4.42176 16.2442 4.8826 16.8127 4.8826Z" fill="#006257"/>
<path d="M6.51966 7.94828C7.08813 7.94828 7.54896 7.48744 7.54896 6.91897C7.54896 6.3505 7.08813 5.88967 6.51966 5.88967C5.95119 5.88967 5.49036 6.3505 5.49036 6.91897C5.49036 7.48744 5.95119 7.94828 6.51966 7.94828Z" fill="#006257"/>
<path d="M15.7834 19.2706C16.3519 19.2706 16.8127 18.8098 16.8127 18.2413C16.8127 17.6728 16.3519 17.212 15.7834 17.212C15.2149 17.212 14.7541 17.6728 14.7541 18.2413C14.7541 18.8098 15.2149 19.2706 15.7834 19.2706Z" fill="#006257"/>
<path d="M27.1057 22.8954C29.0919 22.8954 30.7083 21.279 30.7083 19.2928C30.7083 17.3067 29.0919 15.6903 27.1057 15.6903C25.1196 15.6903 23.5032 17.3067 23.5032 19.2928C23.5032 21.279 25.1196 22.8954 27.1057 22.8954ZM27.1057 16.7196C28.5245 16.7196 29.679 17.8741 29.679 19.2928C29.679 20.7116 28.5245 21.8661 27.1057 21.8661C25.687 21.8661 24.5325 20.7116 24.5325 19.2928C24.5325 17.8741 25.687 16.7196 27.1057 16.7196ZM3.96619 44.5108C4.22969 47.9602 7.1208 50.6866 10.6369 50.6866H43.5746C47.0907 50.6866 49.9818 47.9602 50.2453 44.5108H3.96619Z" fill="#006257"/>
<path d="M6.0116 43.4815H10.1313C10.3108 37.6441 13.5255 32.2423 18.6136 29.2919C18.7314 29.2271 18.8699 29.211 18.9994 29.247C19.129 29.283 19.2393 29.3683 19.3068 29.4846C19.3742 29.601 19.3935 29.7391 19.3604 29.8694C19.3274 29.9997 19.2446 30.112 19.1299 30.1821C14.358 32.948 11.3393 38.0089 11.1606 43.4807H48.2007C47.9265 32.0826 38.5697 22.8946 27.1066 22.8946C15.6434 22.8946 6.2858 32.0826 6.0116 43.4815ZM27.1057 27.0126C29.3068 27.0126 31.4494 27.4293 33.4751 28.2519C33.539 28.2764 33.5974 28.3133 33.6469 28.3607C33.6964 28.408 33.7359 28.4647 33.7632 28.5275C33.7905 28.5903 33.805 28.6579 33.8058 28.7263C33.8066 28.7948 33.7938 28.8627 33.768 28.9261C33.7423 28.9896 33.7042 29.0472 33.6558 29.0957C33.6075 29.1442 33.55 29.1826 33.4867 29.2086C33.4234 29.2346 33.3555 29.2478 33.2871 29.2472C33.2186 29.2467 33.1509 29.2325 33.088 29.2055C31.1882 28.4336 29.1564 28.0385 27.1057 28.0419C26.9692 28.0419 26.8383 27.9877 26.7418 27.8912C26.6453 27.7947 26.5911 27.6638 26.5911 27.5273C26.5911 27.3908 26.6453 27.2599 26.7418 27.1634C26.8383 27.0668 26.9692 27.0126 27.1057 27.0126Z" fill="#006257"/>
</svg>
