<svg width="43" height="43" viewBox="0 0 43 43" fill="none" xmlns="http://www.w3.org/2000/svg">
<g clip-path="url(#clip0_30_101)">
<path d="M42.9772 21.9023C42.9772 20.1406 42.831 18.855 42.5144 17.5219H21.9282V25.4732H34.0118C33.7683 27.4493 32.4527 30.4251 29.5292 32.4248L29.4882 32.691L35.9972 37.6184L36.4481 37.6624C40.5896 33.9247 42.9772 28.4253 42.9772 21.9023Z" fill="#4285F4"/>
<path d="M21.9283 42.8523C27.8482 42.8523 32.8181 40.9476 36.4482 37.6624L29.5293 32.4248C27.6778 33.6866 25.1928 34.5674 21.9283 34.5674C16.1301 34.5674 11.2089 30.8298 9.45469 25.6638L9.19756 25.6851L2.42945 30.8036L2.34094 31.044C5.94652 38.0432 13.3527 42.8523 21.9283 42.8523Z" fill="#34A853"/>
<path d="M9.45504 25.6638C8.99216 24.3306 8.72428 22.9021 8.72428 21.4261C8.72428 19.95 8.99216 18.5217 9.43069 17.1885L9.41842 16.9046L2.5655 11.7039L2.34129 11.8081C0.855253 14.7126 0.00256348 17.9742 0.00256348 21.4261C0.00256348 24.8781 0.855253 28.1396 2.34129 31.044L9.45504 25.6638Z" fill="#FBBC05"/>
<path d="M21.9283 8.28475C26.0454 8.28475 28.8227 10.0226 30.4063 11.475L36.5943 5.57083C32.7939 2.11885 27.8482 3.05176e-05 21.9283 3.05176e-05C13.3527 3.05176e-05 5.94652 4.80897 2.34094 11.8081L9.43034 17.1885C11.2089 12.0225 16.1301 8.28475 21.9283 8.28475Z" fill="#EB4335"/>
</g>
<defs>
<clipPath id="clip0_30_101">
<rect width="43" height="43" fill="white"/>
</clipPath>
</defs>
</svg>
