<svg width="25" height="25" viewBox="0 0 25 25" fill="none" xmlns="http://www.w3.org/2000/svg">
<g clip-path="url(#clip0_40_289)">
<path d="M22.61 5.80078V2.5696C22.61 1.71762 21.9194 1.02801 21.0684 1.02801C20.2175 1.02801 19.5268 1.71762 19.5268 2.5696V3.6888L15.494 0.967374C13.5732 -0.329619 11.0923 -0.329619 9.17145 0.967374L2.49121 5.47499C0.931122 6.52738 0 8.27863 0 10.1604V19.0133C0 22.1304 2.53643 24.6658 5.65251 24.6658H8.73569C9.58665 24.6658 10.2773 23.9762 10.2773 23.1242V14.9023C10.2773 14.6187 10.5085 14.3885 10.7911 14.3885H13.8743C14.157 14.3885 14.3882 14.6187 14.3882 14.9023V23.1242C14.3882 23.9762 15.0788 24.6658 15.9298 24.6658H19.013C22.129 24.6658 24.6655 22.1304 24.6655 19.0133V10.1604C24.6655 8.46054 23.906 6.86756 22.61 5.80078ZM21.5823 19.0133C21.5823 20.4295 20.4302 21.5826 19.013 21.5826H17.4714V14.9023C17.4714 12.9188 15.8578 11.3053 13.8743 11.3053H10.7911C8.80763 11.3053 7.1941 12.9188 7.1941 14.9023V21.5826H5.65251C4.23527 21.5826 3.08318 20.4295 3.08318 19.0133V10.1604C3.08318 9.30431 3.50661 8.50884 4.21574 8.02992L10.896 3.52231C11.7695 2.93342 12.897 2.93342 13.7705 3.52231L20.4508 8.03095C21.1589 8.50884 21.5833 9.30533 21.5833 10.1604L21.5823 19.0133Z" fill="#2E353A"/>
</g>
<defs>
<clipPath id="clip0_40_289">
<rect width="24.6655" height="24.6655" fill="white"/>
</clipPath>
</defs>
</svg>
