<svg width="43" height="43" viewBox="0 0 43 43" fill="none" xmlns="http://www.w3.org/2000/svg">
<path d="M12.9 34.4C10.5243 34.4 8.6215 36.3243 8.6215 38.7C8.6215 41.0758 10.5243 43 12.9 43C15.2758 43 17.2 41.0758 17.2 38.7C17.2 36.3243 15.2758 34.4 12.9 34.4ZM0 0V4.3H4.3L12.0293 20.6078L9.12675 25.8753C8.7935 26.4988 8.6 27.1975 8.6 27.95C8.6 30.3258 10.5243 32.25 12.9 32.25H38.7V27.95H13.8138C13.5128 27.95 13.2763 27.7135 13.2763 27.4125C13.2763 27.3158 13.2978 27.2298 13.3408 27.1545L15.265 23.65H31.2825C32.895 23.65 34.3032 22.7578 35.045 21.4355L42.7313 7.482C42.9033 7.181 43 6.82625 43 6.45C43 5.87978 42.7735 5.33292 42.3703 4.92972C41.9671 4.52652 41.4202 4.3 40.85 4.3H9.06225L7.01975 0H0ZM34.4 34.4C32.0243 34.4 30.1215 36.3243 30.1215 38.7C30.1215 41.0758 32.0243 43 34.4 43C36.7758 43 38.7 41.0758 38.7 38.7C38.7 36.3243 36.7758 34.4 34.4 34.4Z" fill="#006257"/>
</svg>
