<svg width="45" height="47" viewBox="0 0 45 47" fill="none" xmlns="http://www.w3.org/2000/svg">
<path d="M19 27.9999C17.7792 25.5029 16.8902 22.9257 17.2949 21.3501C17.2949 21.3322 17.3015 21.3189 17.3082 21.3011C17.3613 21.1053 17.0494 20.9405 16.7642 21.0208C16.1471 21.1988 15.5766 21.4436 15.0656 21.7373C13.1548 22.8323 12.0468 24.6039 12.0003 26.2642C11.987 26.5179 12.3586 26.6959 12.8031 26.6736L16.3129 26.5133L14.1301 28H19V27.9999Z" fill="#006257"/>
<path d="M13.1219 27.4847C11.8804 27.3111 11.0283 27.0129 11.0609 25.939C11.0975 24.2319 11.7927 22.5196 12.9329 21.1666C9.87195 21.8482 7.24992 22.2855 7.03051 22.2855C4.23172 23.2068 3 25.1584 3 27.0319V28H12.5183C12.7683 27.7762 13.0183 27.6096 13.1219 27.4847ZM24.9939 28C25.9207 25.658 26.6342 23.2848 26.7195 21.5672C24.3963 23.5918 20.6036 23.597 18.2804 21.5672C18.3597 23.2848 19.0792 25.6632 19.9999 28H24.9939ZM33.9391 25.9495C33.9724 27.0152 33.1054 27.3136 31.8781 27.4847C31.9818 27.6148 32.2257 27.7814 32.4756 28H42V27.0268C42 24.8669 40.3841 22.9725 37.9817 22.2855C37.9329 22.2751 34.7135 21.5934 31.9268 21C33.1585 22.3791 33.9025 24.154 33.9391 25.9495Z" fill="#006257"/>
<path d="M32.1554 26.7551C32.1151 24.8192 31.107 22.7415 29.3672 21.505C28.9524 21.2162 28.5089 20.9678 28.0192 20.7854C27.7715 20.694 27.5007 20.8816 27.5468 21.1045C27.5526 21.1249 27.5584 21.1451 27.5641 21.1705C27.9041 22.9644 27.132 25.8935 26.072 28.7313H30.3062L28.4109 27.0387L31.4584 27.2212C31.8443 27.2466 32.167 27.0439 32.1554 26.7551ZM15.0514 13.9511C15.1705 14.2416 14.5294 16.2739 18.5828 20.0881C20.6979 22.0752 24.3174 22.0721 26.4291 20.0881C30.494 16.2631 29.8449 14.2465 29.9663 13.9511C31.2558 13.9511 31.9309 12.5887 31.0263 11.7568C31.7868 10.2771 32.2188 8.67582 32.2188 7.14018C32.2188 2.28554 27.8694 0 22.5002 0C17.1426 0 12.7931 2.28545 12.7931 7.14018C12.7931 8.67582 13.2252 10.2771 13.9856 11.7568C13.0807 12.5891 13.7578 13.9511 15.0514 13.9511ZM43.4038 29.745H1.59621C0.49347 29.745 -0.276538 30.7059 0.0941516 31.6195L5.95616 46.0687C6.18275 46.6272 6.78406 47 7.45822 47H37.5418C38.2159 47 38.8172 46.6271 39.0438 46.0687L44.9058 31.6195C45.2765 30.706 44.5065 29.745 43.4038 29.745ZM22.5002 40.9427C20.514 40.9427 18.9026 40.0979 18.9026 39.0512C18.9026 38.0045 20.514 37.1559 22.5002 37.1559C24.4864 37.1559 26.0978 38.0045 26.0978 39.0512C26.0978 40.0979 24.4864 40.9427 22.5002 40.9427Z" fill="#006257"/>
</svg>
