<svg width="41" height="40" viewBox="0 0 41 40" fill="none" xmlns="http://www.w3.org/2000/svg">
<path d="M23.3333 38.3333C23.3333 39.25 22.5833 40 21.6667 40H1.66667C0.75 40 0 39.25 0 38.3333C0 31.8833 5.21667 26.6667 11.6667 26.6667C18.1167 26.6667 23.3333 31.8833 23.3333 38.3333ZM18.3333 16.6667C18.3333 12.9833 15.35 10 11.6667 10C7.98333 10 5 12.9833 5 16.6667C5 20.35 7.98333 23.3333 11.6667 23.3333C15.35 23.3333 18.3333 20.35 18.3333 16.6667ZM31.6667 0H15C10.5167 0 6.88333 3.56667 6.7 8C8.16667 7.15 9.85 6.66667 11.6667 6.66667C16.2333 6.66667 20.0667 9.73333 21.2667 13.9167L25 17.65L30.9833 11.6667H28.3333C27.4167 11.6667 26.6667 10.9167 26.6667 10C26.6667 9.08333 27.4167 8.33333 28.3333 8.33333H33.3333C35.1667 8.33333 36.6667 9.83333 36.6667 11.6667V16.6667C36.6667 17.5833 35.9167 18.3333 35 18.3333C34.0833 18.3333 33.3333 17.5833 33.3333 16.6667V14.0167L27.35 20C26.05 21.3 23.9333 21.3 22.6333 20L21.4333 18.8C21.4333 18.8 21.4333 18.8167 21.4333 18.8333C20.9167 21.1833 19.5667 23.2167 17.7167 24.6167C20.3333 25.7667 22.55 27.65 24.1333 30H31.6833C36.2833 30 40.0167 26.2667 40.0167 21.6667V8.33333C40.0167 3.73333 36.2833 0 31.6833 0H31.6667Z" fill="#2E353A"/>
</svg>
