<svg width="40" height="40" viewBox="0 0 40 40" fill="none" xmlns="http://www.w3.org/2000/svg">
<path d="M40 20.0037C40 31.0371 31.0333 40.0037 20 40.0037C8.96667 40.0037 0 31.0371 0 20.0037C0 8.97041 8.96667 0.00374455 20 0.00374455C20.3167 0.00374455 20.6333 0.00374455 20.95 0.0204112C22.3333 0.0870779 23.4 1.25374 23.3333 2.63708C23.2667 4.02041 22.1333 5.05374 20.7167 5.02041C20.4833 5.02041 20.2333 5.00375 20 5.00375C11.7333 5.00375 5 11.7371 5 20.0037C5 28.2704 11.7333 35.0037 20 35.0037C28.2667 35.0037 35 28.2704 35 20.0037C35 19.7704 35 19.5204 34.9833 19.2871C34.9167 17.9037 35.9833 16.7371 37.3667 16.6704C38.7833 16.6204 39.9167 17.6704 39.9833 19.0537C39.9833 19.3704 40 19.6871 40 20.0037ZM18.1833 13.5871C19.5167 13.2037 20.2833 11.8371 19.9167 10.5037C19.55 9.17041 18.15 8.40375 16.8333 8.77041C11.8333 10.1871 8.35 14.8037 8.35 20.0037C8.35 26.4371 13.5833 31.6704 20.0167 31.6704C25.2167 31.6704 29.8333 28.1871 31.25 23.1871C31.6333 21.8537 30.85 20.4704 29.5167 20.1037C28.1833 19.7204 26.8 20.5037 26.4333 21.8371C25.6333 24.6871 22.9833 26.6871 20.0167 26.6871C16.3333 26.6871 13.35 23.7037 13.35 20.0204C13.35 17.0537 15.35 14.4037 18.2 13.6037L18.1833 13.5871ZM18.2333 18.2371C17.25 19.2204 17.25 20.8037 18.2333 21.7704C18.7167 22.2537 19.3667 22.5037 20 22.5037C20.6333 22.5037 21.2833 22.2537 21.7667 21.7704L30.2 13.3371H34.1667C34.8333 13.3371 35.4667 13.0704 35.9333 12.6037L39.2667 9.27041C39.9833 8.55375 40.2 7.48708 39.8167 6.55375C39.4333 5.62041 38.5167 5.00375 37.5 5.00375H35V2.50374C35 1.48708 34.3833 0.587078 33.45 0.187078C32.5167 -0.196255 31.4333 0.0204112 30.7333 0.737078L27.4 4.07041C26.9333 4.53708 26.6667 5.17041 26.6667 5.83708V9.80375L18.2333 18.2371Z" fill="#2E353A"/>
</svg>
