<svg width="37" height="37" viewBox="0 0 37 37" fill="none" xmlns="http://www.w3.org/2000/svg">
<path d="M8.47881 12.3333H3.85401C1.72505 12.3333 0 10.6082 0 8.47917V3.85417C0 1.72512 1.72505 0 3.85401 0H8.47881C10.6078 0 12.3328 1.72512 12.3328 3.85417V8.47917C12.3328 10.6082 10.6078 12.3333 8.47881 12.3333ZM8.47881 27.75H3.85401C1.72505 27.75 0 26.0249 0 23.8958V19.2708C0 17.1418 1.72505 15.4167 3.85401 15.4167H8.47881C10.6078 15.4167 12.3328 17.1418 12.3328 19.2708V23.8958C12.3328 26.0249 10.6078 27.75 8.47881 27.75ZM23.8948 0H19.27C17.1411 0 15.416 1.72512 15.416 3.85417V8.47917C15.416 10.6082 17.1411 12.3333 19.27 12.3333H23.8948C26.0238 12.3333 27.7488 10.6082 27.7488 8.47917V3.85417C27.7488 1.72512 26.0238 0 23.8948 0ZM23.124 6.9375C23.124 7.363 22.7787 7.70833 22.3532 7.70833H20.8116C20.3862 7.70833 20.0408 7.363 20.0408 6.9375V5.39583C20.0408 4.97033 20.3862 4.625 20.8116 4.625H22.3532C22.7787 4.625 23.124 4.97033 23.124 5.39583V6.9375ZM23.124 18.665C23.124 17.1295 22.0742 15.705 20.5588 15.4583C18.6272 15.1438 16.9576 16.6269 16.9576 18.5V32.0929C15.2989 30.727 13.7033 29.3919 13.6509 29.3425C12.2295 28.0152 9.99267 28.0892 8.66381 29.5106C7.3334 30.9335 7.40123 33.1674 8.81488 34.4902L11.6221 37H37V36.0858C37 32.9177 35.0607 30.0717 32.1116 28.9124L23.1256 25.3789V18.665H23.124Z" fill="#2E353A"/>
</svg>
