<svg width="25" height="25" viewBox="0 0 25 25" fill="none" xmlns="http://www.w3.org/2000/svg">
<g clip-path="url(#clip0_46_72)">
<path d="M19.5304 4.11167H18.3997C18.1611 2.95157 17.5299 1.9092 16.6124 1.16023C15.6949 0.411259 14.5473 0.00149513 13.3629 0L11.3071 0C10.1227 0.00149513 8.97507 0.411259 8.05758 1.16023C7.14009 1.9092 6.50887 2.95157 6.27029 4.11167H5.13958C3.77698 4.1133 2.47066 4.65531 1.50715 5.61882C0.543647 6.58232 0.00163219 7.88865 0 9.25125L0 19.5304C0.00163219 20.893 0.543647 22.1993 1.50715 23.1628C2.47066 24.1264 3.77698 24.6684 5.13958 24.67H19.5304C20.893 24.6684 22.1993 24.1264 23.1628 23.1628C24.1264 22.1993 24.6684 20.893 24.67 19.5304V9.25125C24.6684 7.88865 24.1264 6.58232 23.1628 5.61882C22.1993 4.65531 20.893 4.1133 19.5304 4.11167ZM11.3071 2.05583H13.3629C13.9984 2.05847 14.6176 2.25739 15.1358 2.62539C15.6539 2.99339 16.0457 3.51249 16.2575 4.11167H8.41247C8.62431 3.51249 9.0161 2.99339 9.53424 2.62539C10.0524 2.25739 10.6716 2.05847 11.3071 2.05583ZM5.13958 6.1675H19.5304C20.3483 6.1675 21.1326 6.49239 21.711 7.07071C22.2893 7.64902 22.6142 8.43339 22.6142 9.25125V12.335H2.05583V9.25125C2.05583 8.43339 2.38073 7.64902 2.95904 7.07071C3.53736 6.49239 4.32172 6.1675 5.13958 6.1675ZM19.5304 22.6142H5.13958C4.32172 22.6142 3.53736 22.2893 2.95904 21.711C2.38073 21.1326 2.05583 20.3483 2.05583 19.5304V14.3908H11.3071V15.4187C11.3071 15.6914 11.4154 15.9528 11.6082 16.1456C11.8009 16.3384 12.0624 16.4467 12.335 16.4467C12.6076 16.4467 12.8691 16.3384 13.0618 16.1456C13.2546 15.9528 13.3629 15.6914 13.3629 15.4187V14.3908H22.6142V19.5304C22.6142 20.3483 22.2893 21.1326 21.711 21.711C21.1326 22.2893 20.3483 22.6142 19.5304 22.6142Z" fill="black"/>
</g>
<defs>
<clipPath id="clip0_46_72">
<rect width="24.67" height="24.67" fill="white"/>
</clipPath>
</defs>
</svg>
