<svg width="24" height="24" viewBox="0 0 24 24" fill="none" xmlns="http://www.w3.org/2000/svg">
<path d="M11.2598 14.8507C10.9996 14.8507 10.75 14.9496 10.566 15.1258C10.382 15.3019 10.2787 15.5408 10.2787 15.7899V18.6075C10.2787 19.3548 9.96855 20.0715 9.41654 20.5999C8.86453 21.1283 8.11584 21.4252 7.33518 21.4252H4.90582C4.12515 21.4252 3.37647 21.1283 2.82445 20.5999C2.27244 20.0715 1.96233 19.3548 1.96233 18.6075V5.45853C1.96233 4.71124 2.27244 3.99456 2.82445 3.46615C3.37647 2.93774 4.12515 2.64088 4.90582 2.64088H7.33518C8.11584 2.64088 8.86453 2.93774 9.41654 3.46615C9.96855 3.99456 10.2787 4.71124 10.2787 5.45853V8.27617C10.2787 8.52527 10.382 8.76416 10.566 8.9403C10.75 9.11643 10.9996 9.21539 11.2598 9.21539C11.5201 9.21539 11.7696 9.11643 11.9536 8.9403C12.1376 8.76416 12.241 8.52527 12.241 8.27617V5.45853C12.2394 4.21351 11.7221 3.01991 10.8024 2.13955C9.88271 1.25919 8.6358 0.763943 7.33518 0.762451H4.90582C3.60519 0.763943 2.35828 1.25919 1.4386 2.13955C0.51892 3.01991 0.00155795 4.21351 0 5.45853L0 18.6075C0.00155795 19.8526 0.51892 21.0462 1.4386 21.9265C2.35828 22.8069 3.60519 23.3021 4.90582 23.3036H7.33518C8.6358 23.3021 9.88271 22.8069 10.8024 21.9265C11.7221 21.0462 12.2394 19.8526 12.241 18.6075V15.7899C12.241 15.5408 12.1376 15.3019 11.9536 15.1258C11.7696 14.9496 11.5201 14.8507 11.2598 14.8507Z" fill="#FF6E71"/>
<path d="M22.6025 10.4481L18.1101 5.96152C18.0198 5.86807 17.9117 5.79354 17.7922 5.74227C17.6727 5.691 17.5441 5.66401 17.4141 5.66288C17.284 5.66175 17.155 5.6865 17.0346 5.73569C16.9142 5.78489 16.8049 5.85753 16.7129 5.94939C16.6209 6.04125 16.5482 6.15048 16.4989 6.27071C16.4497 6.39095 16.4249 6.51977 16.426 6.64968C16.4271 6.77958 16.4542 6.90795 16.5055 7.02732C16.5568 7.14668 16.6315 7.25463 16.725 7.34488L20.9 11.5155L6.07999 11.5449C5.82019 11.5449 5.57103 11.6479 5.38733 11.8314C5.20362 12.0149 5.10042 12.2637 5.10042 12.5232C5.10042 12.7827 5.20362 13.0315 5.38733 13.215C5.57103 13.3985 5.82019 13.5015 6.07999 13.5015L20.9578 13.4712L16.7231 17.7015C16.6295 17.7918 16.5549 17.8997 16.5035 18.0191C16.4522 18.1384 16.4252 18.2668 16.424 18.3967C16.4229 18.5266 16.4477 18.6554 16.497 18.7757C16.5462 18.8959 16.6189 19.0051 16.7109 19.097C16.8029 19.1889 16.9123 19.2615 17.0327 19.3107C17.153 19.3599 17.282 19.3846 17.4121 19.3835C17.5422 19.3824 17.6707 19.3554 17.7902 19.3041C17.9097 19.2528 18.0178 19.1783 18.1082 19.0849L22.6005 14.5982C23.1517 14.0481 23.4615 13.3019 23.4619 12.5236C23.4623 11.7453 23.1531 10.9988 22.6025 10.4481Z" fill="#FF6E71"/>
</svg>
