<svg width="14" height="16" viewBox="0 0 14 16" fill="none" xmlns="http://www.w3.org/2000/svg">
<path d="M12.565 3.69333L10.122 1.36667C9.198 0.486667 7.966 0 6.657 0H3.5C1.568 0 0 1.49333 0 3.33333V12.6667C0 14.5067 1.568 16 3.5 16H10.5C12.432 16 14 14.5067 14 12.6667V6.99333C14 5.74667 13.489 4.57333 12.565 3.69333ZM11.578 4.63333C11.802 4.84667 11.991 5.08 12.145 5.33333H9.107C8.722 5.33333 8.407 5.03333 8.407 4.66667V1.77333C8.673 1.92 8.918 2.1 9.142 2.31333L11.585 4.64L11.578 4.63333ZM12.6 12.6667C12.6 13.7667 11.655 14.6667 10.5 14.6667H3.5C2.345 14.6667 1.4 13.7667 1.4 12.6667V3.33333C1.4 2.23333 2.345 1.33333 3.5 1.33333H6.657C6.769 1.33333 6.888 1.33333 7 1.34667V4.66667C7 5.76667 7.945 6.66667 9.1 6.66667H12.586C12.6 6.77333 12.6 6.88 12.6 6.99333V12.6667ZM3.563 8.66667H2.8C2.415 8.66667 2.1 8.96667 2.1 9.33333V12.2933C2.1 12.5267 2.296 12.7067 2.534 12.7067C2.772 12.7067 2.968 12.52 2.968 12.2933V11.48H3.556C4.382 11.48 5.054 10.8467 5.054 10.0733C5.054 9.3 4.382 8.66667 3.556 8.66667H3.563ZM3.563 10.6467H2.982V9.5H3.57C3.906 9.5 4.193 9.76 4.193 10.0733C4.193 10.3867 3.906 10.6467 3.57 10.6467H3.563ZM11.914 9.08667C11.914 9.32 11.718 9.5 11.48 9.5H10.297V10.26H11.165C11.41 10.26 11.599 10.4467 11.599 10.6733C11.599 10.9 11.403 11.0867 11.165 11.0867H10.297V12.2867C10.297 12.52 10.101 12.7 9.863 12.7C9.625 12.7 9.429 12.5133 9.429 12.2867V9.08C9.429 8.84667 9.625 8.66667 9.863 8.66667H11.48C11.725 8.66667 11.914 8.85333 11.914 9.08V9.08667ZM7.063 8.67333H6.3C5.915 8.67333 5.6 8.97333 5.6 9.34V12.3C5.6 12.5333 5.796 12.6733 6.034 12.6733C6.272 12.6733 7.056 12.6733 7.056 12.6733C7.882 12.6733 8.554 12.04 8.554 11.2667V10.08C8.554 9.30667 7.882 8.67333 7.056 8.67333H7.063ZM7.686 11.2667C7.686 11.58 7.399 11.84 7.063 11.84H6.482V9.50667H7.07C7.406 9.50667 7.693 9.76667 7.693 10.08V11.2667H7.686Z" fill="#2E353A"/>
</svg>
