<svg width="54" height="54" viewBox="0 0 54 54" fill="none" xmlns="http://www.w3.org/2000/svg">
<circle cx="27" cy="27" r="27" fill="#75C044"/>
<g clip-path="url(#clip0_46_231)">
<path d="M36.492 23.9689L26.954 16.9749C26.209 16.4294 25.3275 16.1009 24.4073 16.0256C23.487 15.9504 22.5639 16.1315 21.7402 16.5489C20.9165 16.9662 20.2245 17.6034 19.7408 18.39C19.2572 19.1765 19.0008 20.0816 19 21.0049V34.9999C18.9986 35.9242 19.2537 36.8307 19.7369 37.6186C20.2201 38.4065 20.9124 39.0448 21.7369 39.4625C22.5614 39.8803 23.4856 40.061 24.4067 39.9846C25.3278 39.9083 26.2096 39.5778 26.954 39.0299L36.492 32.0359C37.1249 31.5715 37.6395 30.9646 37.9942 30.2643C38.3489 29.5639 38.5338 28.79 38.5338 28.0049C38.5338 27.2199 38.3489 26.4459 37.9942 25.7456C37.6395 25.0453 37.1249 24.4384 36.492 23.9739V23.9689Z" fill="white"/>
</g>
<defs>
<clipPath id="clip0_46_231">
<rect width="24" height="24" fill="white" transform="translate(16 16)"/>
</clipPath>
</defs>
</svg>
