<svg width="8" height="8" viewBox="0 0 8 8" fill="none" xmlns="http://www.w3.org/2000/svg">
<g clip-path="url(#clip0_53_97)">
<path d="M7.10228 1.68664C7.01395 1.62564 6.90162 1.60998 6.80162 1.64598C6.76862 1.65764 6.17262 1.87264 5.75262 2.40864C5.40962 1.79798 4.99162 1.29531 4.16128 0.837643C4.06162 0.782309 3.93962 0.782309 3.83995 0.837643C3.01162 1.29264 2.60228 1.78231 2.25095 2.40764C1.83062 1.86898 1.22995 1.65698 1.19662 1.64564C1.09662 1.61131 0.985285 1.62631 0.897951 1.68731C0.366618 2.05698 0.333618 4.11231 0.333618 4.13264C0.333618 5.88298 0.732618 6.49898 0.777952 6.56331C0.816952 6.61864 0.871951 6.66064 0.935618 6.68398C0.993285 6.70531 2.37128 7.20464 4.00028 7.20464C5.62928 7.20464 7.00695 6.70531 7.06462 6.68398C7.12962 6.66031 7.18529 6.61664 7.22462 6.55998C7.26995 6.49398 7.66662 5.86698 7.66662 4.13264C7.66662 4.11198 7.63329 2.05664 7.10228 1.68731V1.68664Z" fill="#FFCC00"/>
</g>
<defs>
<clipPath id="clip0_53_97">
<rect width="8" height="8" fill="white"/>
</clipPath>
</defs>
</svg>
