<svg width="57" height="13" viewBox="0 0 57 13" fill="none" xmlns="http://www.w3.org/2000/svg">
<rect width="57" height="13" rx="4" fill="#FFCC00" fill-opacity="0.12"/>
<path d="M16.666 9V2.7H18.736C19.228 2.7 19.633 2.781 19.951 2.943C20.269 3.105 20.503 3.324 20.653 3.6C20.809 3.876 20.887 4.188 20.887 4.536C20.887 4.878 20.812 5.187 20.662 5.463C20.512 5.739 20.278 5.961 19.96 6.129C19.642 6.291 19.234 6.372 18.736 6.372H17.422V9H16.666ZM17.422 5.733H18.718C19.222 5.733 19.579 5.628 19.789 5.418C20.005 5.202 20.113 4.908 20.113 4.536C20.113 4.158 20.005 3.864 19.789 3.654C19.579 3.438 19.222 3.33 18.718 3.33H17.422V5.733ZM21.5629 9V4.536H22.2469L22.3099 5.391C22.4479 5.097 22.6579 4.863 22.9399 4.689C23.2219 4.515 23.5699 4.428 23.9839 4.428V5.22H23.7769C23.5129 5.22 23.2699 5.268 23.0479 5.364C22.8259 5.454 22.6489 5.61 22.5169 5.832C22.3849 6.054 22.3189 6.36 22.3189 6.75V9H21.5629ZM26.4025 9.108C25.9765 9.108 25.5985 9.012 25.2685 8.82C24.9385 8.622 24.6775 8.349 24.4855 8.001C24.2995 7.653 24.2065 7.242 24.2065 6.768C24.2065 6.3 24.2995 5.892 24.4855 5.544C24.6715 5.19 24.9295 4.917 25.2595 4.725C25.5955 4.527 25.9825 4.428 26.4205 4.428C26.8525 4.428 27.2245 4.527 27.5365 4.725C27.8545 4.917 28.0975 5.172 28.2655 5.49C28.4335 5.808 28.5175 6.15 28.5175 6.516C28.5175 6.582 28.5145 6.648 28.5085 6.714C28.5085 6.78 28.5085 6.855 28.5085 6.939H24.9535C24.9715 7.281 25.0495 7.566 25.1875 7.794C25.3315 8.016 25.5085 8.184 25.7185 8.298C25.9345 8.412 26.1625 8.469 26.4025 8.469C26.7145 8.469 26.9755 8.397 27.1855 8.253C27.3955 8.109 27.5485 7.914 27.6445 7.668H28.3915C28.2715 8.082 28.0405 8.427 27.6985 8.703C27.3625 8.973 26.9305 9.108 26.4025 9.108ZM26.4025 5.067C26.0425 5.067 25.7215 5.178 25.4395 5.4C25.1635 5.616 25.0045 5.934 24.9625 6.354H27.7705C27.7525 5.952 27.6145 5.637 27.3565 5.409C27.0985 5.181 26.7805 5.067 26.4025 5.067ZM29.2495 9V4.536H29.9335L29.9875 5.184C30.1315 4.944 30.3235 4.758 30.5635 4.626C30.8035 4.494 31.0735 4.428 31.3735 4.428C31.7275 4.428 32.0305 4.5 32.2825 4.644C32.5405 4.788 32.7385 5.007 32.8765 5.301C33.0325 5.031 33.2455 4.818 33.5155 4.662C33.7915 4.506 34.0885 4.428 34.4065 4.428C34.9405 4.428 35.3665 4.59 35.6845 4.914C36.0025 5.232 36.1615 5.724 36.1615 6.39V9H35.4145V6.471C35.4145 6.009 35.3215 5.661 35.1355 5.427C34.9495 5.193 34.6825 5.076 34.3345 5.076C33.9745 5.076 33.6745 5.217 33.4345 5.499C33.2005 5.775 33.0835 6.171 33.0835 6.687V9H32.3275V6.471C32.3275 6.009 32.2345 5.661 32.0485 5.427C31.8625 5.193 31.5955 5.076 31.2475 5.076C30.8935 5.076 30.5965 5.217 30.3565 5.499C30.1225 5.775 30.0055 6.171 30.0055 6.687V9H29.2495ZM37.4893 3.546C37.3393 3.546 37.2133 3.498 37.1113 3.402C37.0153 3.3 36.9673 3.174 36.9673 3.024C36.9673 2.88 37.0153 2.76 37.1113 2.664C37.2133 2.568 37.3393 2.52 37.4893 2.52C37.6333 2.52 37.7563 2.568 37.8583 2.664C37.9603 2.76 38.0113 2.88 38.0113 3.024C38.0113 3.174 37.9603 3.3 37.8583 3.402C37.7563 3.498 37.6333 3.546 37.4893 3.546ZM37.1113 9V4.536H37.8673V9H37.1113ZM40.5426 9.108C40.0146 9.108 39.5946 8.949 39.2826 8.631C38.9706 8.307 38.8146 7.812 38.8146 7.146V4.536H39.5706V7.065C39.5706 7.995 39.9516 8.46 40.7136 8.46C41.1036 8.46 41.4246 8.322 41.6766 8.046C41.9346 7.764 42.0636 7.365 42.0636 6.849V4.536H42.8196V9H42.1356L42.0816 8.199C41.9436 8.481 41.7366 8.703 41.4606 8.865C41.1906 9.027 40.8846 9.108 40.5426 9.108ZM43.794 9V4.536H44.478L44.532 5.184C44.676 4.944 44.868 4.758 45.108 4.626C45.348 4.494 45.618 4.428 45.918 4.428C46.272 4.428 46.575 4.5 46.827 4.644C47.085 4.788 47.283 5.007 47.421 5.301C47.577 5.031 47.79 4.818 48.06 4.662C48.336 4.506 48.633 4.428 48.951 4.428C49.485 4.428 49.911 4.59 50.229 4.914C50.547 5.232 50.706 5.724 50.706 6.39V9H49.959V6.471C49.959 6.009 49.866 5.661 49.68 5.427C49.494 5.193 49.227 5.076 48.879 5.076C48.519 5.076 48.219 5.217 47.979 5.499C47.745 5.775 47.628 6.171 47.628 6.687V9H46.872V6.471C46.872 6.009 46.779 5.661 46.593 5.427C46.407 5.193 46.14 5.076 45.792 5.076C45.438 5.076 45.141 5.217 44.901 5.499C44.667 5.775 44.55 6.171 44.55 6.687V9H43.794Z" fill="#FFCC00"/>
<g clip-path="url(#clip0_260_92)">
<path d="M12.1023 3.68664C12.014 3.62564 11.9016 3.60998 11.8016 3.64598C11.7686 3.65764 11.1726 3.87264 10.7526 4.40864C10.4096 3.79798 9.99162 3.29531 9.16128 2.83764C9.06162 2.78231 8.93962 2.78231 8.83995 2.83764C8.01162 3.29264 7.60228 3.78231 7.25095 4.40764C6.83062 3.86898 6.22995 3.65698 6.19662 3.64564C6.09662 3.61131 5.98528 3.62631 5.89795 3.68731C5.36662 4.05698 5.33362 6.11231 5.33362 6.13264C5.33362 7.88298 5.73262 8.49898 5.77795 8.56331C5.81695 8.61864 5.87195 8.66064 5.93562 8.68398C5.99328 8.70531 7.37128 9.20464 9.00028 9.20464C10.6293 9.20464 12.007 8.70531 12.0646 8.68398C12.1296 8.66031 12.1853 8.61664 12.2246 8.55998C12.27 8.49398 12.6666 7.86698 12.6666 6.13264C12.6666 6.11198 12.6333 4.05664 12.1023 3.68731V3.68664Z" fill="#FFCC00"/>
</g>
<defs>
<clipPath id="clip0_260_92">
<rect width="8" height="8" fill="white" transform="translate(5 2)"/>
</clipPath>
</defs>
</svg>
