<svg width="49" height="49" viewBox="0 0 49 49" fill="none" xmlns="http://www.w3.org/2000/svg">
<path d="M26.7892 4.23391V5.67328H34.7747V1.38578H27.2333C24.5536 1.38578 21.9581 2.35047 19.9675 4.14203L19.8909 4.21094L21.5676 6.27812C21.5753 6.27812 23.6195 3.5525 26.7892 4.23391ZM22.8539 41.5045C22.6625 41.5045 22.5094 41.3667 22.494 41.1753C22.3792 39.5905 21.4758 38.2353 20.1742 37.4927C18.6506 36.6198 17.2955 35.4714 16.392 33.9708C16.2236 33.6952 16.124 33.5344 16.124 33.5344C16.124 33.5344 12.8548 38.7406 12.8548 40.5475C12.8548 40.8767 12.9161 41.183 13.008 41.4816C12.9697 41.4969 12.9314 41.5045 12.8931 41.5045C11.8519 41.4969 10.7953 41.7802 10.244 42.6683C8.72045 45.0877 10.4278 47.6219 12.7247 47.6219H23.0376C24.7833 47.6219 26.1844 46.1672 26.0925 44.3986C25.993 42.7372 24.5076 41.5045 22.8539 41.5045Z" fill="#006257"/>
<path d="M9.79998 38.2353C10.6245 38.2353 11.2929 37.5669 11.2929 36.7423C11.2929 35.9178 10.6245 35.2494 9.79998 35.2494C8.97543 35.2494 8.30701 35.9178 8.30701 36.7423C8.30701 37.5669 8.97543 38.2353 9.79998 38.2353Z" fill="#006257"/>
<path d="M18.7425 32.2711C19.567 32.2711 20.2354 31.6027 20.2354 30.7781C20.2354 29.9536 19.567 29.2852 18.7425 29.2852C17.9179 29.2852 17.2495 29.9536 17.2495 30.7781C17.2495 31.6027 17.9179 32.2711 18.7425 32.2711Z" fill="#006257"/>
<path d="M28.9865 8.29172H33.1056L33.542 8.39891V7.16625H28.5425V8.39891L28.9865 8.29172Z" fill="#006257"/>
<path d="M38.4344 12.028C38.4344 11.5533 38.1358 11.1245 37.6917 10.9638L32.9219 9.77703H29.1703L24.4005 10.9561C23.9564 11.1169 23.6578 11.5456 23.6578 12.0203C23.0836 20.335 22.5017 28.6267 21.9275 36.9108C22.8845 37.753 23.5506 38.8631 23.8416 40.1034C25.8934 40.5245 27.463 42.2166 27.5701 44.3067C27.6314 45.4245 27.2869 46.4964 26.6055 47.3616C30.6862 47.798 34.8206 47.6448 38.8708 46.8716C39.9886 46.6648 40.7695 45.6619 40.7006 44.5288C39.9426 33.7258 39.1923 22.8769 38.4344 12.028ZM31.2375 34.4838C29.0325 34.4838 27.2409 32.6922 27.2409 30.4872C27.2409 28.2822 31.2375 22.6778 31.2375 22.6778C31.2375 22.6778 35.2341 28.2822 35.2341 30.4872C35.2341 32.6922 33.4425 34.4838 31.2375 34.4838Z" fill="#006257"/>
</svg>
