<svg width="35" height="35" viewBox="0 0 35 35" fill="none" xmlns="http://www.w3.org/2000/svg">
<path d="M8.0205 11.6667H3.64568C1.63181 11.6667 0 10.0348 0 8.02083V3.64583C0 1.63188 1.63181 0 3.64568 0H8.0205C10.0344 0 11.6662 1.63188 11.6662 3.64583V8.02083C11.6662 10.0348 10.0344 11.6667 8.0205 11.6667ZM8.0205 26.25H3.64568C1.63181 26.25 0 24.6181 0 22.6042V18.2292C0 16.2152 1.63181 14.5833 3.64568 14.5833H8.0205C10.0344 14.5833 11.6662 16.2152 11.6662 18.2292V22.6042C11.6662 24.6181 10.0344 26.25 8.0205 26.25ZM22.6032 0H18.2284C16.2145 0 14.5827 1.63188 14.5827 3.64583V8.02083C14.5827 10.0348 16.2145 11.6667 18.2284 11.6667H22.6032C24.6171 11.6667 26.2489 10.0348 26.2489 8.02083V3.64583C26.2489 1.63188 24.6171 0 22.6032 0ZM21.8741 6.5625C21.8741 6.965 21.5474 7.29167 21.145 7.29167H19.6867C19.2842 7.29167 18.9575 6.965 18.9575 6.5625V5.10417C18.9575 4.70167 19.2842 4.375 19.6867 4.375H21.145C21.5474 4.375 21.8741 4.70167 21.8741 5.10417V6.5625ZM21.8741 17.656C21.8741 16.2035 20.881 14.856 19.4475 14.6227C17.6203 14.3252 16.041 15.7281 16.041 17.5V30.3581C14.4719 29.066 12.9626 27.8031 12.913 27.7565C11.5685 26.5008 9.45252 26.5708 8.19549 27.9154C6.937 29.2615 7.00117 31.3746 8.3384 32.6258L10.9939 35H35V34.1352C35 31.1383 33.1655 28.4463 30.3758 27.3496L21.8755 24.0071V17.656H21.8741Z" fill="#2E353A"/>
</svg>
