<svg width="300" height="280" viewBox="0 0 300 280" fill="none" xmlns="http://www.w3.org/2000/svg">
<path d="M96.1161 249.06C97.9413 249.06 99.8055 249.06 101.709 249.06C106.451 248.967 110.827 248.662 114.914 248.194V159.103H96.1161V249.06Z" fill="#75C044"/>
<path d="M130.888 245.16C137.399 243.411 143.699 240.957 149.679 237.844V159.064H130.888V245.16Z" fill="#75C044"/>
<path d="M165.653 228.172C171.893 224.139 177.649 220.629 184.451 218.874V159.103H165.653V228.172Z" fill="#75C044"/>
<path d="M200.426 218.04C207.149 218.82 213.28 220.606 219.223 222.532V159.103H200.426V218.04Z" fill="#75C044"/>
<path d="M7.04791 187.503C8.13991 190.493 9.32291 193.415 10.5969 196.27V159.103H0.667511C1.61732 168.796 3.76033 178.335 7.04791 187.503Z" fill="#75C044"/>
<path d="M26.5713 221.596C31.9736 227.669 38.3213 232.829 45.3693 236.877V159.103H26.5713V221.596Z" fill="#75C044"/>
<path d="M61.3437 243.873C67.4718 245.808 73.764 247.179 80.1417 247.968V159.103H61.3437V243.873Z" fill="#75C044"/>
<path d="M235.198 227.353C241.343 228.889 247.731 229.196 253.996 228.258V159.103H235.198V227.353Z" fill="#75C044"/>
<path d="M280.843 54.5516C275.562 43.9112 269.051 33.9267 261.445 24.8024C229.504 -13.0198 164.998 -1.22618 140.163 18.2972C115.328 37.8206 114.134 65.0348 92.8323 72.1172C71.5305 79.1996 54.9711 65.612 26.5713 82.772C7.3521 94.3862 -0.728696 121.99 0.0513039 149.626H299.072C299.22 147.372 299.345 145.164 299.431 143.027C300.879 112.433 294.48 81.9766 280.843 54.5516ZM28.1781 112.03L24.5979 110.15L21.0177 112.03L21.7041 108.044L18.8025 105.22L22.8039 104.635L24.5979 101.008L26.3919 104.635L30.3933 105.22L27.4917 108.044L28.1781 112.03ZM109.914 119.9L104.751 126.6L102.598 118.41L94.6653 115.563L101.756 110.992L102.013 102.568L108.542 107.896L116.638 105.54L113.588 113.403L118.331 120.368L109.914 119.9ZM149.85 67.8818L149.18 72.749L145.724 69.2546L140.888 70.1126L143.158 65.7602L140.818 61.4234L145.67 62.2034L149.078 58.6622L149.858 63.5138L154.273 65.6666L149.85 67.8818ZM168.118 142.91L164.218 140.851L160.318 142.91L161.098 138.55L157.923 135.43L162.307 134.79L164.265 130.828L166.223 134.79L170.606 135.43L167.432 138.55L168.118 142.91ZM222.429 14.7638L220.378 13.6874L218.326 14.7638L218.716 12.4784L217.063 10.8638L219.356 10.5284L220.378 8.45362L221.4 10.5284L223.693 10.8638L222.039 12.4784L222.429 14.7638ZM283.269 122.817L278.098 120.095L272.911 122.817L273.901 117.045L269.705 112.95L275.5 112.108L278.098 106.858L280.695 112.108L286.491 112.95L282.294 117.045L283.269 122.817Z" fill="#75C044"/>
<path d="M269.97 222.727C270.867 222.259 271.772 221.76 272.692 221.222C279.673 217.158 284.884 209.85 288.768 200.872V159.103H269.97V222.727Z" fill="#75C044"/>
<g opacity="0.7">
<path d="M96.1161 249.06C97.9413 249.06 99.8055 249.06 101.709 249.06C106.451 248.967 110.827 248.662 114.914 248.194V159.103H96.1161V249.06Z" fill="white"/>
<path d="M130.888 245.16C137.399 243.411 143.699 240.957 149.679 237.844V159.064H130.888V245.16Z" fill="white"/>
<path d="M165.653 228.172C171.893 224.139 177.649 220.629 184.451 218.874V159.103H165.653V228.172Z" fill="white"/>
<path d="M200.426 218.04C207.149 218.82 213.28 220.606 219.223 222.532V159.103H200.426V218.04Z" fill="white"/>
<path d="M7.04791 187.503C8.13991 190.493 9.32291 193.415 10.5969 196.27V159.103H0.667511C1.61732 168.796 3.76033 178.335 7.04791 187.503Z" fill="white"/>
<path d="M26.5713 221.596C31.9736 227.669 38.3213 232.829 45.3693 236.877V159.103H26.5713V221.596Z" fill="white"/>
<path d="M61.3437 243.873C67.4718 245.808 73.764 247.179 80.1417 247.968V159.103H61.3437V243.873Z" fill="white"/>
<path d="M235.198 227.353C241.343 228.889 247.731 229.196 253.996 228.258V159.103H235.198V227.353Z" fill="white"/>
<path d="M280.843 54.5516C275.562 43.9112 269.051 33.9267 261.445 24.8024C229.504 -13.0198 164.998 -1.22618 140.163 18.2972C115.328 37.8206 114.134 65.0348 92.8323 72.1172C71.5305 79.1996 54.9711 65.612 26.5713 82.772C7.3521 94.3862 -0.728696 121.99 0.0513039 149.626H299.072C299.22 147.372 299.345 145.164 299.431 143.027C300.879 112.433 294.48 81.9766 280.843 54.5516ZM28.1781 112.03L24.5979 110.15L21.0177 112.03L21.7041 108.044L18.8025 105.22L22.8039 104.635L24.5979 101.008L26.3919 104.635L30.3933 105.22L27.4917 108.044L28.1781 112.03ZM109.914 119.9L104.751 126.6L102.598 118.41L94.6653 115.563L101.756 110.992L102.013 102.568L108.542 107.896L116.638 105.54L113.588 113.403L118.331 120.368L109.914 119.9ZM149.85 67.8818L149.18 72.749L145.724 69.2546L140.888 70.1126L143.158 65.7602L140.818 61.4234L145.67 62.2034L149.078 58.6622L149.858 63.5138L154.273 65.6666L149.85 67.8818ZM168.118 142.91L164.218 140.851L160.318 142.91L161.098 138.55L157.923 135.43L162.307 134.79L164.265 130.828L166.223 134.79L170.606 135.43L167.432 138.55L168.118 142.91ZM222.429 14.7638L220.378 13.6874L218.326 14.7638L218.716 12.4784L217.063 10.8638L219.356 10.5284L220.378 8.45362L221.4 10.5284L223.693 10.8638L222.039 12.4784L222.429 14.7638ZM283.269 122.817L278.098 120.095L272.911 122.817L273.901 117.045L269.705 112.95L275.5 112.108L278.098 106.858L280.695 112.108L286.491 112.95L282.294 117.045L283.269 122.817Z" fill="white"/>
<path d="M269.97 222.727C270.867 222.259 271.772 221.76 272.692 221.222C279.673 217.158 284.884 209.85 288.768 200.872V159.103H269.97V222.727Z" fill="white"/>
</g>
<path d="M214.411 279.199C238.1 279.199 257.303 276.287 257.303 272.694C257.303 269.101 238.1 266.189 214.411 266.189C190.722 266.189 171.519 269.101 171.519 272.694C171.519 276.287 190.722 279.199 214.411 279.199Z" fill="#75C044"/>
<path opacity="0.5" d="M214.411 279.199C238.1 279.199 257.303 276.287 257.303 272.694C257.303 269.101 238.1 266.189 214.411 266.189C190.722 266.189 171.519 269.101 171.519 272.694C171.519 276.287 190.722 279.199 214.411 279.199Z" fill="white"/>
<path d="M83.6673 269.738C101.476 269.738 115.912 266.826 115.912 263.233C115.912 259.64 101.476 256.728 83.6673 256.728C65.8588 256.728 51.4221 259.64 51.4221 263.233C51.4221 266.826 65.8588 269.738 83.6673 269.738Z" fill="#75C044"/>
<path opacity="0.5" d="M83.6673 269.738C101.476 269.738 115.912 266.826 115.912 263.233C115.912 259.64 101.476 256.728 83.6673 256.728C65.8588 256.728 51.4221 259.64 51.4221 263.233C51.4221 266.826 65.8588 269.738 83.6673 269.738Z" fill="white"/>
<path d="M67.9893 246.338L84.4083 239.505C83.2617 237.625 82.1151 238.515 80.6487 235.473C79.8687 233.913 80.5551 231.401 79.5723 229.389C78.7923 227.743 76.3665 226.698 75.4305 224.81C74.5803 223.11 75.1965 220.575 74.2761 218.742C73.3557 216.909 70.9923 216.004 70.0719 214.218C69.1515 212.431 69.7521 209.92 68.8239 208.165C67.8957 206.41 65.4699 205.443 64.5417 203.711C63.6135 201.979 64.1049 199.382 63.1533 197.689C62.2017 195.997 59.6979 195.014 58.7385 193.384C57.6621 191.559 58.0599 188.977 57.0693 187.425C55.8603 185.537 53.3409 184.851 52.3191 183.525C50.4003 181.029 49.3707 178.283 48.4191 178.47C47.4675 178.657 48.2943 181.419 48.8169 184.71C49.0821 186.348 47.8497 188.61 48.3957 190.802C48.8325 192.565 50.9853 194.031 51.5781 196.044C52.1007 197.845 51.0555 200.224 51.6717 202.167C52.2879 204.109 54.4563 205.349 55.0881 207.244C55.7199 209.14 54.7293 211.503 55.3689 213.367C56.0085 215.232 58.2549 216.534 58.9023 218.367C59.5497 220.2 58.6371 222.673 59.2923 224.482C59.9475 226.292 62.2485 227.665 62.8959 229.435C63.6213 231.393 62.7243 233.827 63.3639 235.535C64.1439 237.61 66.4293 238.873 67.0299 240.441C68.3325 243.865 66.4995 243.803 67.5759 246.549L67.9893 246.338Z" fill="#2E353A"/>
<path d="M50.3067 184L74.7207 242.649" stroke="white" stroke-width="0.360849" stroke-miterlimit="10"/>
<path d="M55.4313 189.086L53.7153 192.502L50.3145 190.498" stroke="white" stroke-width="0.360849" stroke-miterlimit="10"/>
<path d="M59.6745 199.288L57.9663 202.713L54.5655 200.708" stroke="white" stroke-width="0.360849" stroke-miterlimit="10"/>
<path d="M63.6759 208.89L61.9677 212.314L58.5591 210.31" stroke="white" stroke-width="0.360849" stroke-miterlimit="10"/>
<path d="M68.4339 220.309L66.7179 223.734L63.3171 221.729" stroke="white" stroke-width="0.360849" stroke-miterlimit="10"/>
<path d="M73.2387 231.853L71.5305 235.278L68.1297 233.273" stroke="white" stroke-width="0.360849" stroke-miterlimit="10"/>
<path d="M66.1329 241.806L92.9181 240.956C92.3019 237.696 90.2193 238.335 89.7981 233.273C89.5797 230.715 91.8417 227.478 91.5297 224.124C91.2723 221.362 88.4565 218.617 88.1445 215.458C87.8637 212.611 90.0867 209.366 89.7669 206.293C89.4549 203.391 86.6001 200.685 86.2647 197.674C85.9293 194.663 88.1055 191.434 87.7467 188.478C87.3879 185.521 84.4785 182.854 84.0885 179.898C83.6985 176.941 85.7889 173.564 85.3521 170.678C84.8997 167.62 81.9201 165.054 81.4521 162.238C80.9139 159.118 82.8561 155.671 82.2867 152.972C81.5925 149.657 78.3867 147.34 77.6847 144.907C76.3275 140.367 76.3353 135.945 74.8923 135.703C73.4493 135.461 73.1373 139.782 72.1311 144.657C71.6241 147.106 68.6679 149.665 68.2779 153.019C67.9581 155.733 70.2045 158.947 69.9549 162.09C69.7287 164.914 66.9909 167.706 66.8349 170.764C66.6711 173.65 69.0657 176.746 68.9331 179.757C68.8005 182.768 66.1563 185.553 66.0627 188.524C65.9691 191.496 68.4027 194.523 68.3637 197.455C68.3247 200.388 65.6883 203.383 65.6415 206.277C65.5947 209.335 68.1063 212.338 68.0751 215.177C68.0751 218.297 65.4855 221.277 65.4777 224.03C65.4777 227.361 68.0049 230.356 68.0127 232.899C68.0127 238.405 65.4699 237.345 65.5167 241.783L66.1329 241.806Z" fill="#2E353A"/>
<path d="M74.5491 144.548L77.5989 240.207" stroke="white" stroke-width="0.543628" stroke-miterlimit="10"/>
<path d="M79.0497 154.446L74.8065 158.346L71.0859 153.705" stroke="white" stroke-width="0.543628" stroke-miterlimit="10"/>
<path d="M79.5801 171.091L75.3369 174.999L71.6163 170.358" stroke="white" stroke-width="0.543628" stroke-miterlimit="10"/>
<path d="M80.0793 186.754L75.8361 190.654L72.1155 186.013" stroke="white" stroke-width="0.543628" stroke-miterlimit="10"/>
<path d="M80.6721 205.38L76.4289 209.288L72.7161 204.647" stroke="white" stroke-width="0.543628" stroke-miterlimit="10"/>
<path d="M81.2727 224.209L77.0295 228.117L73.3089 223.476" stroke="white" stroke-width="0.543628" stroke-miterlimit="10"/>
<path d="M82.2633 181.637C83.6361 182.581 87.3333 183.197 87.3411 183.197C87.3489 183.197 87.0135 180.639 86.9745 180.475C86.4909 178.626 84.4785 175.342 82.3491 175.225C81.9943 175.215 81.6412 175.278 81.3127 175.413C80.9843 175.548 80.6879 175.75 80.4428 176.007C80.1978 176.264 80.0096 176.569 79.8905 176.904C79.7714 177.238 79.7242 177.594 79.7517 177.948C79.8141 179.469 81.0855 180.826 82.2633 181.637Z" fill="#2E353A"/>
<path d="M119.337 189.663C119.337 189.663 120.483 187.323 120.538 187.191C121.154 185.389 121.318 181.536 119.578 180.256C119.288 180.052 118.958 179.911 118.61 179.843C118.262 179.775 117.903 179.78 117.558 179.86C117.212 179.939 116.887 180.091 116.603 180.304C116.32 180.518 116.084 180.788 115.913 181.099C115.133 182.394 115.444 184.219 115.975 185.545C116.638 187.097 119.337 189.663 119.337 189.663Z" fill="#2E353A"/>
<path d="M132.917 178.455C130.873 177.831 127.839 180.202 126.747 181.77C126.653 181.902 125.413 184.188 125.452 184.195H125.499C125.015 184.562 124.508 184.975 123.939 185.42C122.933 186.262 121.794 187.23 120.632 188.361C119.365 189.565 118.17 190.841 117.051 192.183C115.794 193.682 114.671 195.29 113.697 196.987V197.05C113.83 196.441 114.134 194.71 114.142 194.585C114.259 192.682 113.362 188.93 111.381 188.15C111.046 188.028 110.689 187.978 110.334 188.004C109.979 188.03 109.633 188.13 109.319 188.299C109.005 188.467 108.731 188.7 108.513 188.983C108.296 189.265 108.141 189.59 108.058 189.936C107.652 191.387 108.44 193.056 109.298 194.203C110.273 195.482 113.339 197.136 113.588 197.268C112.639 199.031 111.808 200.855 111.1 202.728C110.687 203.812 110.32 204.912 109.922 206.028C110.016 205.497 110.102 205.014 110.102 204.951C110.219 203.048 109.322 199.296 107.348 198.516C107.014 198.396 106.659 198.346 106.305 198.372C105.951 198.398 105.607 198.498 105.294 198.666C104.981 198.834 104.707 199.065 104.49 199.346C104.273 199.627 104.117 199.95 104.033 200.295C103.62 201.745 104.408 203.415 105.266 204.561C106.124 205.708 108.729 207.174 109.423 207.549L109.002 208.836C108.339 210.887 107.691 212.946 106.997 214.943C106.748 215.645 106.482 216.331 106.217 217.01C106.295 216.542 106.365 216.136 106.373 216.082C106.49 214.171 105.593 210.427 103.612 209.647C103.278 209.525 102.923 209.475 102.568 209.5C102.214 209.525 101.869 209.625 101.556 209.793C101.243 209.961 100.969 210.193 100.752 210.474C100.535 210.756 100.38 211.08 100.297 211.425C99.8913 212.876 100.671 214.545 101.537 215.692C102.403 216.838 104.751 218.164 105.562 218.617C105.273 219.303 104.977 220.005 104.665 220.66C104.439 221.105 104.252 221.55 104.002 221.986C103.752 222.423 103.526 222.852 103.292 223.273C102.809 224.053 102.309 224.911 101.818 225.691C101.483 226.23 101.155 226.737 100.82 227.251C101.069 226.549 101.537 225.177 101.6 225.06C101.893 223.408 101.759 221.708 101.21 220.122C101.255 219.938 101.281 219.75 101.288 219.561C101.311 219.207 101.259 218.851 101.136 218.519C101.013 218.186 100.822 217.883 100.574 217.629C100.326 217.375 100.027 217.176 99.6971 217.045C99.3672 216.914 99.0135 216.855 98.6589 216.87C96.5295 217.018 94.5483 220.325 94.0959 222.174C94.0959 222.283 93.9087 223.5 93.8151 224.272C93.8151 223.812 93.8151 223.367 93.7683 222.891C93.7683 221.955 93.6591 221.019 93.5967 220.013C93.5421 219.529 93.4953 219.038 93.4407 218.547C93.3861 218.055 93.3003 217.54 93.2301 217.033C93.0429 215.856 92.7933 214.693 92.5125 213.492C93.3393 213.492 96.2487 213.289 97.5279 212.65C98.8071 212.01 100.25 210.848 100.531 209.366C100.608 209.019 100.61 208.661 100.539 208.313C100.468 207.965 100.324 207.637 100.117 207.348C99.9105 207.06 99.6453 206.818 99.3389 206.639C99.0326 206.46 98.6919 206.347 98.3391 206.308C96.2097 206.129 93.7605 209.101 93.0273 210.856C92.9805 210.973 92.5983 212.291 92.3955 213.024C92.2239 212.314 92.0601 211.605 91.8651 210.887C91.2957 208.836 90.6561 206.769 90.0243 204.702L89.4627 202.806C89.7513 202.806 93.2223 202.674 94.6575 201.956C95.9289 201.324 97.3797 200.154 97.6527 198.672C97.7306 198.326 97.7345 197.968 97.6642 197.62C97.594 197.272 97.4511 196.943 97.2449 196.655C97.0387 196.366 96.7739 196.124 96.4679 195.945C96.1618 195.766 95.8213 195.653 95.4687 195.615C93.3393 195.435 90.8823 198.407 90.1491 200.17C90.0945 200.302 89.5407 202.206 89.4237 202.697C89.0181 201.301 88.6437 199.912 88.2849 198.524C87.8196 196.653 87.4783 194.754 87.2631 192.838C87.3957 192.838 91.0149 192.721 92.4891 191.988C93.7605 191.356 95.2113 190.186 95.4843 188.704C95.5622 188.358 95.5661 187.999 95.4958 187.652C95.4256 187.304 95.2827 186.975 95.0765 186.686C94.8703 186.398 94.6055 186.156 94.2995 185.977C93.9934 185.797 93.6529 185.685 93.3003 185.646C91.1709 185.467 88.7139 188.439 87.9807 190.194C87.9339 190.311 87.5127 191.754 87.3255 192.456H87.2085C87.0366 190.522 87.0366 188.578 87.2085 186.645C87.2943 185.584 87.4347 184.57 87.5907 183.587C88.2693 183.634 91.3659 183.821 92.7621 183.306C94.1583 182.791 95.6637 181.816 96.1005 180.373C96.2154 180.037 96.2581 179.681 96.2259 179.327C96.1937 178.973 96.0873 178.63 95.9136 178.32C95.7399 178.011 95.5028 177.741 95.2178 177.529C94.9329 177.317 94.6064 177.167 94.2597 177.09C92.1615 176.676 89.4003 179.359 88.4799 181.029C88.4253 181.122 88.0197 182.097 87.6999 182.815C87.7779 182.378 87.8481 181.918 87.9339 181.497C88.2459 179.937 88.6281 178.478 88.9791 177.214C89.1819 176.497 89.3769 175.849 89.5719 175.249C90.2583 174.945 93.0195 173.689 94.0023 172.628C94.9851 171.567 95.8899 169.968 95.6169 168.478C95.5626 168.131 95.4363 167.798 95.246 167.502C95.0558 167.206 94.8058 166.953 94.5121 166.759C94.2184 166.565 93.8874 166.435 93.5404 166.376C93.1934 166.318 92.838 166.332 92.4969 166.419C90.4533 167.02 89.2365 170.67 89.1819 172.581C89.1819 172.745 89.4081 175.327 89.4471 175.311C89.2521 175.888 89.0415 176.505 88.8387 177.191C88.4565 178.447 88.0587 179.874 87.6999 181.465C87.3068 183.168 87.0151 184.892 86.8263 186.629C86.5993 188.573 86.5497 190.534 86.6781 192.487C86.6743 192.51 86.6743 192.534 86.6781 192.557C86.4441 191.98 85.7499 190.373 85.6797 190.256C84.7359 188.602 81.9201 185.958 79.8375 186.403C79.4927 186.487 79.1693 186.643 78.8885 186.86C78.6076 187.077 78.3754 187.351 78.2071 187.663C78.0387 187.976 77.9378 188.32 77.911 188.674C77.8841 189.028 77.932 189.384 78.0513 189.718C78.5115 191.153 80.0949 192.128 81.4365 192.596C82.9575 193.126 86.4285 192.814 86.7015 192.783C86.8765 194.77 87.1866 196.743 87.6297 198.688C87.8715 199.819 88.1601 200.958 88.4643 202.089C88.2459 201.589 88.0509 201.153 88.0197 201.09C87.0681 199.437 84.2601 196.8 82.1697 197.245C81.8242 197.328 81.5001 197.483 81.2186 197.7C80.9371 197.917 80.7044 198.19 80.5359 198.503C80.3673 198.816 80.2666 199.161 80.2404 199.515C80.2141 199.87 80.2629 200.226 80.3835 200.56C80.8437 201.995 82.4271 202.962 83.7765 203.438C85.1259 203.914 88.1055 203.703 88.8855 203.641C89.0103 204.07 89.1195 204.507 89.2443 204.936C89.8293 207.018 90.4221 209.093 90.9369 211.137C91.1241 211.862 91.2723 212.58 91.4283 213.297C91.2411 212.86 91.0773 212.517 91.0461 212.431C90.0945 210.778 87.2865 208.141 85.1961 208.586C84.8513 208.67 84.5279 208.826 84.2471 209.043C83.9662 209.26 83.7341 209.534 83.5657 209.846C83.3973 210.159 83.2964 210.503 83.2696 210.857C83.2427 211.211 83.2905 211.567 83.4099 211.901C83.8701 213.336 85.4535 214.311 86.8029 214.779C88.1523 215.247 90.8433 215.068 91.7715 214.99C91.9119 215.731 92.0523 216.472 92.1459 217.197C92.2083 217.689 92.2941 218.164 92.3253 218.664C92.3565 219.163 92.4033 219.646 92.4423 220.138C92.4891 221.074 92.5359 222.041 92.5515 222.954C92.5515 223.593 92.5515 224.202 92.5515 224.81C92.3799 224.092 92.0133 222.688 91.9665 222.571C91.2801 220.793 88.9011 217.759 86.7717 217.891C86.4182 217.922 86.0751 218.027 85.7646 218.199C85.4541 218.37 85.1832 218.605 84.9692 218.888C84.7553 219.171 84.6031 219.496 84.5226 219.842C84.4421 220.187 84.4351 220.546 84.5019 220.894C84.7437 222.384 86.1555 223.585 87.4191 224.256C88.7997 224.989 92.1459 225.216 92.5593 225.239C92.5593 226.253 92.5593 227.236 92.5593 228.164C92.5125 231.081 92.3721 233.546 92.2395 235.371L93.6513 235.652C93.7449 233.78 93.8385 231.214 93.8307 228.172C93.8307 227.142 93.8307 226.05 93.7683 224.919C94.8232 224.723 95.8651 224.462 96.8883 224.139C97.7385 225.512 100.227 227.407 100.547 227.649C99.9927 228.499 99.4467 229.318 98.9241 230.083C97.2861 232.462 95.8041 234.42 94.7043 235.87L96.2643 236.167C97.3017 234.747 98.6043 232.93 99.9849 230.785C100.554 229.927 101.139 228.999 101.732 228.039C102.114 228.195 105.211 229.482 106.779 229.435C108.206 229.389 110.008 228.936 110.882 227.704C111.096 227.422 111.248 227.098 111.329 226.753C111.41 226.409 111.418 226.051 111.352 225.703C111.285 225.355 111.147 225.025 110.945 224.734C110.743 224.443 110.482 224.198 110.18 224.014C108.315 222.961 104.844 224.631 103.44 225.918C103.355 225.996 102.551 226.924 102.052 227.478C102.294 227.08 102.528 226.698 102.77 226.292C103.261 225.512 103.721 224.677 104.22 223.804L104.899 222.493C105.141 222.064 105.336 221.573 105.554 221.113C106.045 220.029 106.49 218.905 106.911 217.767C107.621 218.196 110.141 219.662 111.591 219.834C113.042 220.005 114.86 219.834 115.905 218.749C116.16 218.503 116.361 218.206 116.494 217.877C116.627 217.548 116.69 217.195 116.677 216.84C116.665 216.485 116.578 216.137 116.422 215.819C116.266 215.5 116.044 215.217 115.772 214.99C114.095 213.664 110.406 214.787 108.822 215.856C108.729 215.918 107.676 216.807 107.106 217.306C107.356 216.62 107.606 215.941 107.84 215.232C108.495 213.204 109.103 211.129 109.719 209.062C109.907 208.43 110.102 207.798 110.297 207.174C110.546 207.322 113.502 209.132 115.094 209.327C116.513 209.499 118.362 209.327 119.407 208.243C119.663 207.997 119.863 207.699 119.997 207.37C120.13 207.041 120.192 206.688 120.179 206.333C120.167 205.979 120.08 205.631 119.924 205.312C119.768 204.993 119.547 204.711 119.274 204.483C117.597 203.157 113.908 204.28 112.325 205.349C112.208 205.427 110.694 206.714 110.328 207.057C110.749 205.669 111.186 204.288 111.677 202.947C112.321 201.131 113.081 199.359 113.955 197.643C114.072 197.713 117.153 199.616 118.783 199.811C120.203 199.99 122.051 199.811 123.096 198.727C123.352 198.481 123.553 198.183 123.686 197.854C123.819 197.525 123.881 197.172 123.869 196.817C123.856 196.463 123.769 196.115 123.613 195.796C123.457 195.477 123.236 195.195 122.964 194.967C121.287 193.649 117.597 194.772 116.014 195.833C115.913 195.903 114.758 196.878 114.22 197.393L114.126 197.315C115.055 195.611 116.133 193.992 117.348 192.479C118.003 191.644 118.682 190.872 119.352 190.139C119.891 190.545 122.371 192.409 123.822 192.752C125.273 193.095 127.067 193.103 128.229 192.144C128.509 191.926 128.741 191.653 128.909 191.34C129.077 191.027 129.177 190.683 129.202 190.329C129.228 189.975 129.179 189.619 129.058 189.286C128.938 188.952 128.748 188.647 128.502 188.392C126.981 186.894 123.198 187.612 121.482 188.485C121.388 188.54 120.507 189.125 119.875 189.57C120.179 189.242 120.491 188.899 120.795 188.595C121.934 187.448 123.042 186.457 124.032 185.599C124.594 185.108 125.117 184.679 125.592 184.289C126.333 184.414 129.321 184.897 130.733 184.546C132.144 184.195 133.782 183.369 134.367 181.98C134.528 181.657 134.617 181.303 134.63 180.942C134.643 180.582 134.578 180.222 134.441 179.889C134.303 179.555 134.096 179.254 133.834 179.007C133.571 178.76 133.258 178.571 132.917 178.455Z" fill="#2E353A"/>
<path d="M113.619 235.051H55.5639V242.734H113.619V235.051Z" fill="#2E353A"/>
<path d="M104.493 264.824H64.6821L59.7057 241.884H109.47L104.493 264.824Z" fill="#2E353A"/>
<path d="M56.0553 118.8L55.4703 174.133C55.4703 174.133 53.1303 175.311 46.6407 175.311C40.1511 175.311 37.8111 174.133 37.8111 174.133L40.1511 151.763C40.1511 151.763 31.9221 150 31.9221 147.66C31.9221 145.32 50.1663 80.5802 50.1663 80.5802C50.1663 80.5802 59.5887 97.0148 56.0553 118.8Z" fill="#75C044" stroke="#2E353A" stroke-miterlimit="10"/>
<path d="M40.1589 151.755L47.7873 116.499" stroke="#2E353A" stroke-miterlimit="10"/>
<path d="M43.1073 80.5334C43.1073 80.5334 53.6997 94.6592 54.8775 100.548C56.0553 106.437 56.0553 118.8 56.0553 118.8C59.5096 110.136 61.6902 101.016 62.5293 91.7264C63.7071 77.0078 51.9369 69.356 51.9369 69.356L43.1073 80.5334Z" fill="#2E353A" stroke="#2E353A" stroke-miterlimit="10"/>
<path d="M242.156 118.8L242.741 174.133C242.741 174.133 245.081 175.311 251.57 175.311C258.06 175.311 260.4 174.133 260.4 174.133L258.06 151.763C258.06 151.763 266.289 150 266.289 147.66C266.289 145.32 248.037 80.5802 248.037 80.5802C248.037 80.5802 238.622 97.0148 242.156 118.8Z" fill="#75C044" stroke="#2E353A" stroke-miterlimit="10"/>
<path d="M258.044 151.755L250.969 110.758" stroke="#2E353A" stroke-miterlimit="10"/>
<path d="M255.103 80.5334C255.103 80.5334 244.503 94.6592 243.325 100.548C242.148 106.437 242.155 118.792 242.155 118.792C238.697 110.129 236.513 101.009 235.674 91.7186C234.496 77 246.274 69.3482 246.274 69.3482L255.103 80.5334Z" fill="#2E353A" stroke="#2E353A" stroke-miterlimit="10"/>
<path d="M255.018 80.5334C222.932 61.5577 186.339 51.5468 149.062 51.5468C111.786 51.5468 75.1928 61.5577 43.1073 80.5334L24.5277 49.115C23.1939 46.8842 24.4497 43.655 27.3747 42.0482C64.5607 21.2602 106.453 10.3457 149.055 10.3457C191.657 10.3457 233.549 21.2602 270.735 42.0482C273.652 43.6784 274.915 46.8842 273.582 49.115L255.018 80.5334Z" fill="#75C044"/>
<path d="M255.018 80.5334C222.932 61.5577 186.339 51.5468 149.062 51.5468C111.786 51.5468 75.1928 61.5577 43.1073 80.5334L24.5277 49.115C23.1939 46.8842 24.4497 43.655 27.3747 42.0482C64.5607 21.2602 106.453 10.3457 149.055 10.3457C191.657 10.3457 233.549 21.2602 270.735 42.0482C273.652 43.6784 274.915 46.8842 273.582 49.115L255.018 80.5334Z" stroke="#2E353A" stroke-miterlimit="10"/>
<path d="M68.1198 58.6533L54.5486 37.403L59.0921 35.9477L69.1877 53.0821L68.1793 33.0371L72.8556 31.5394L83.5481 48.4826L81.8101 28.6713L86.3869 27.2054L87.5213 52.4391L82.4802 54.0537L72.3572 38.3177L73.1277 57.0493L68.1198 58.6533Z" fill="#2E353A"/>
<path d="M97.8689 49.644L92.7467 25.7405L108.352 22.3965L109.106 25.9137L97.8713 28.3211L99.2762 34.8775L109.486 32.6896L110.218 36.1044L100.008 38.2923L101.486 45.1902L112.721 42.7828L113.474 46.3L97.8689 49.644Z" fill="#2E353A"/>
<path d="M117.864 45.6596L114.697 21.5356L119.108 20.9563L121.823 41.634L132.507 40.2312L132.959 43.6774L117.864 45.6596Z" fill="#2E353A"/>
<path d="M148.063 43.1542C145.604 43.2422 143.474 42.7958 141.673 41.8148C139.872 40.8107 138.462 39.386 137.443 37.5407C136.424 35.6722 135.87 33.4967 135.781 31.0141C135.692 28.5316 136.089 26.322 136.972 24.3854C137.855 22.4489 139.159 20.9154 140.885 19.785C142.61 18.6546 144.702 18.0454 147.161 17.9574C150.085 17.8527 152.501 18.498 154.409 19.8933C156.34 21.2645 157.584 23.2527 158.142 25.8579L153.235 26.0335C152.886 24.7218 152.199 23.7126 151.175 23.0059C150.173 22.2751 148.86 21.9388 147.236 21.9969C144.986 22.0775 143.25 22.9062 142.028 24.4832C140.807 26.0602 140.244 28.1828 140.34 30.8509C140.435 33.5191 141.148 35.596 142.479 37.0816C143.809 38.5441 145.6 39.235 147.85 39.1544C149.474 39.0963 150.761 38.7018 151.711 37.9708C152.683 37.2159 153.297 36.2066 153.554 34.9429L158.461 34.7672C158.087 37.2896 156.985 39.2921 155.156 40.7746C153.351 42.2564 150.987 43.0496 148.063 43.1542Z" fill="#2E353A"/>
<path d="M171.037 44.7531C168.597 44.5335 166.507 43.8066 164.767 42.5723C163.05 41.34 161.754 39.7356 160.877 37.759C160.026 35.7613 159.713 33.519 159.937 31.0323C160.16 28.5456 160.868 26.407 162.06 24.6165C163.278 22.8049 164.841 21.4462 166.75 20.5402C168.682 19.6364 170.868 19.2943 173.308 19.5139C175.725 19.7315 177.804 20.4574 179.544 21.6917C181.283 22.926 182.579 24.542 183.43 26.5398C184.283 28.5143 184.598 30.7449 184.374 33.2317C184.15 35.7184 183.441 37.8686 182.247 39.6823C181.055 41.4727 179.493 42.8199 177.561 43.7237C175.629 44.6275 173.454 44.9707 171.037 44.7531ZM171.398 40.7442C173.722 40.9533 175.638 40.3527 177.148 38.9422C178.68 37.5338 179.567 35.4933 179.807 32.8207C180.048 30.148 179.54 27.982 178.283 26.3226C177.05 24.6653 175.272 23.7321 172.948 23.5229C170.624 23.3138 168.695 23.9134 167.163 25.3218C165.63 26.7301 164.744 28.7706 164.503 31.4433C164.263 34.116 164.771 36.282 166.027 37.9414C167.283 39.6007 169.074 40.535 171.398 40.7442Z" fill="#2E353A"/>
<path d="M186.071 45.0174L191.794 21.3217L196.94 22.5646L200.858 39.4179L211.936 26.187L217.081 27.4299L211.357 51.1256L207.024 50.0789L210.974 33.7289L201.241 45.0993L197.822 44.2735L194.353 29.714L190.404 46.0641L186.071 45.0174Z" fill="#2E353A"/>
<path d="M217.738 53.3418L226.538 30.6083L241.38 36.3531L240.085 39.6982L229.4 35.5624L226.987 41.7979L236.697 45.5566L235.44 48.8042L225.729 45.0456L223.19 51.6058L233.875 55.7416L232.58 59.0867L217.738 53.3418Z" fill="#2E353A"/>
<path d="M216.618 116.928C216.618 116.928 206.697 109.596 201.931 106.008C197.165 102.42 188.998 92.1242 186.955 87.6002C185.944 85.2712 184.809 82.9982 183.554 80.7908C183.554 80.7908 184.498 76.2434 184.498 75.1202C184.498 73.997 183.585 72.515 183.008 71.5634C182.719 71.0876 180.668 68.3654 180.668 70.4402C180.668 72.0626 181.643 72.8738 181.643 73.8488C180.33 73.1234 179.248 72.0419 178.523 70.7288C177.384 68.6228 176.901 67.8038 176.245 68.2952C175.083 69.1688 176.573 71.4152 176.573 71.4152C176.573 71.4152 176.245 68.2952 174.623 68.81C173.687 69.0908 174.951 71.735 175.598 72.8738C176.245 74.0126 175.27 72.0938 175.434 74.0126C175.551 75.44 177.181 78.95 178.687 80.6738C179.233 81.3056 180.504 81.1106 180.637 81.329C181.12 82.109 186.323 94.1678 189.895 100.182C193.468 106.195 195.589 107.982 198.514 110.907C201.439 113.832 205.339 118.87 208.748 121.304C212.157 123.738 213.951 122.77 215.901 121.14C217.851 119.51 218.139 118.582 216.618 116.928Z" fill="white" stroke="#2E353A" stroke-linecap="round" stroke-linejoin="round"/>
<path d="M181.588 73.841C181.588 73.841 180.122 76.61 180.808 77.741" stroke="#2E353A" stroke-linecap="round" stroke-linejoin="round"/>
<path d="M176.55 71.4074L177.852 73.841" stroke="#2E353A" stroke-linecap="round" stroke-linejoin="round"/>
<path d="M178.008 79.3712C176.889 77.9508 175.909 76.4253 175.083 74.816C174.436 73.1936 174.927 69.6212 175.902 70.2686C176.877 70.916 176.55 74.4962 176.55 74.4962L178.5 76.766" fill="white"/>
<path d="M178.008 79.3712C176.889 77.9508 175.909 76.4253 175.083 74.816C174.436 73.1936 174.927 69.6212 175.902 70.2686C176.877 70.916 176.55 74.4962 176.55 74.4962L178.5 76.766" stroke="#2E353A" stroke-linecap="round" stroke-linejoin="round"/>
<path d="M218.716 96.6638C218.716 96.6638 213.732 94.8464 214.637 88.4972C215.542 82.148 220.986 85.3226 220.986 85.3226C220.986 85.3226 215.526 78.0608 226.657 76.4774C237.787 74.894 245.946 84.8702 248.668 95.9774C251.391 107.085 234.145 108.223 236.641 116.624C239.137 125.025 248.895 134.564 247.303 146.116C245.712 157.668 229.839 164.056 222.577 157.909C215.316 151.763 212.367 142.263 216.478 133.62C220.588 124.978 222.827 114.791 223.958 110.22C225.089 105.649 218.716 96.6638 218.716 96.6638Z" fill="#2E353A" stroke="#2E353A" stroke-linecap="round" stroke-linejoin="round"/>
<path d="M236.563 105.15C229.738 102.42 226.228 91.3052 226.228 85.0652C226.228 78.8252 235.003 81.9452 235.003 81.9452C235.003 81.9452 226.423 83.5052 230.713 91.8902C235.003 100.275 242.608 102.81 246.508 100.275" stroke="white" stroke-width="0.75" stroke-linecap="round" stroke-linejoin="round"/>
<path d="M235.198 111.195C235.198 111.195 229.153 113.145 230.908 120.75C232.663 128.355 246.118 137.91 242.218 147.66C238.318 157.41 231.493 161.31 223.303 158.385" stroke="white" stroke-width="0.75" stroke-linecap="round" stroke-linejoin="round"/>
<path d="M232.273 112.755C232.273 112.755 225.643 115.485 224.863 125.235C224.083 134.985 232.078 143.37 228.373 148.245C224.668 153.12 218.623 152.535 216.673 149.61" stroke="white" stroke-width="0.75" stroke-linecap="round" stroke-linejoin="round"/>
<path d="M217.133 107.326C217.133 107.326 217.812 109.822 215.573 113.683C213.334 117.544 212.172 118.441 212.172 118.441L220.339 117.763L225.557 108.231C225.557 108.231 217.585 108.918 217.133 107.326Z" fill="white" stroke="#2E353A" stroke-linecap="round" stroke-linejoin="round"/>
<path d="M225.3 86.2274C225.3 86.2274 217.359 93.4892 215.768 99.8384C214.177 106.188 216.22 110.275 219.177 110.275C222.133 110.275 228.248 107.779 228.248 107.779C228.248 107.779 230.065 109.339 231.875 108.465C232.393 108.215 232.835 107.83 233.154 107.351C233.474 106.873 233.66 106.318 233.693 105.743C233.693 105.743 221.212 93.4892 225.3 86.2274Z" fill="white" stroke="#2E353A" stroke-linecap="round" stroke-linejoin="round"/>
<path d="M221.938 97.124C221.392 97.8182 220.737 98.2082 220.464 97.9976C220.191 97.787 220.409 97.0538 220.955 96.3596C221.501 95.6654 222.156 95.2754 222.421 95.486C222.687 95.6966 222.476 96.4298 221.938 97.124Z" fill="#2E353A"/>
<path d="M225.713 101.079C225.175 101.781 224.512 102.171 224.239 101.96C223.966 101.749 224.192 101.016 224.73 100.322C225.268 99.6278 225.931 99.23 226.204 99.4406C226.477 99.6512 226.251 100.384 225.713 101.079Z" fill="#2E353A"/>
<path d="M221.579 98.606C220.653 98.9326 219.762 99.3506 218.919 99.854C218.209 100.384 219.45 101.094 219.45 101.094" stroke="#2E353A" stroke-width="0.75" stroke-linecap="round" stroke-linejoin="round"/>
<path d="M217.32 102.865C217.448 103.442 217.759 103.961 218.208 104.346C218.657 104.73 219.219 104.957 219.808 104.994C220.923 105.161 222.06 104.908 222.999 104.284" stroke="#2E353A" stroke-width="0.75" stroke-linecap="round" stroke-linejoin="round"/>
<path d="M221.758 92.5766C222.323 92.4884 222.899 92.6254 223.363 92.9581C223.827 93.2908 224.141 93.7925 224.239 94.355" stroke="#2E353A" stroke-width="0.75" stroke-linecap="round" stroke-linejoin="round"/>
<path d="M225.838 97.0148C225.838 97.0148 228.849 98.0756 227.967 100.384" stroke="#2E353A" stroke-width="0.75" stroke-linecap="round" stroke-linejoin="round"/>
<path d="M196.073 262.468C196.073 262.468 191.877 265.269 190.473 265.963C189.069 266.657 183.133 267.71 182.953 269.286C182.774 270.861 185.925 271.735 189.427 271.735C192.93 271.735 197.118 271.735 199.216 272.086C201.315 272.437 202.719 273.131 203.592 270.861C204.466 268.591 203.062 262.64 203.062 262.64C203.062 262.64 199.396 264.044 196.073 262.468Z" fill="#75C044" stroke="#2E353A" stroke-linecap="round" stroke-linejoin="round"/>
<path d="M197.641 200.217C197.641 200.217 195.199 211.581 195.199 215.255C195.199 218.929 196.596 242.711 196.947 249.349C197.117 253.741 196.824 258.138 196.073 262.468C196.073 262.468 199.045 263.865 200.269 263.865C201.494 263.865 203.062 262.64 203.062 262.64C203.062 262.64 206.564 247.251 206.564 239.037C206.564 230.824 207.258 226.097 206.564 220.848C205.87 215.598 203.444 205.989 204.286 202.486C205.129 198.984 200.269 194.967 197.641 200.217Z" fill="#2E353A" stroke="#2E353A" stroke-linecap="round" stroke-linejoin="round"/>
<path d="M197.617 150C197.617 150 194.638 170.171 194.638 185.139C194.638 200.107 200.995 218.04 202.578 220.536C204.162 223.032 218.007 247.984 221.181 253.202C223.428 257.158 225.287 261.322 226.735 265.635C227.843 265.976 228.982 266.203 230.136 266.314C231.274 266.314 232.858 264.957 232.858 264.957C232.858 264.957 225.495 236.182 222.546 228.702C219.598 221.222 213.498 215.317 211.915 212.4C210.331 209.483 209.645 198.103 209.645 198.103C209.645 198.103 218.943 183.361 220.565 175.42C222.187 167.48 217.812 158.58 215.994 155.46C214.806 153.333 213.746 151.138 212.82 148.885C212.82 148.885 203.296 154.516 197.617 150Z" fill="#2E353A" stroke="#2E353A" stroke-linecap="round" stroke-linejoin="round"/>
<path d="M214.863 141.81C214.863 141.81 220.534 124.346 221.883 120.259C223.233 116.172 221.197 114.588 215.074 115.267C208.951 115.945 198.288 120.727 197.836 125.929C197.384 131.132 199.396 134.096 199.396 136.592C199.396 139.088 195.808 150 198.538 152.247C201.268 154.493 209.879 153.807 212.375 150.687C214.871 147.567 214.863 141.81 214.863 141.81Z" fill="#75C044" stroke="#2E353A" stroke-linecap="round" stroke-linejoin="round"/>
<path d="M216.618 116.928C216.947 119.782 216.244 122.659 214.637 125.04C211.915 129.346 205.792 127.762 206.244 122.997C206.697 118.231 212.469 114.276 216.618 116.928Z" fill="white" stroke="#2E353A" stroke-linecap="round" stroke-linejoin="round"/>
<path d="M212.749 123.683C213.487 123.565 214.19 123.284 214.805 122.861C215.421 122.437 215.934 121.881 216.308 121.234C216.682 120.587 216.906 119.865 216.965 119.12C217.024 118.375 216.916 117.626 216.649 116.928C216.481 116.447 216.187 116.019 215.8 115.687C215.412 115.356 214.944 115.133 214.442 115.041C210.542 114.362 193.569 115.719 189.256 115.267C184.942 114.814 168.617 104.83 164.296 100.977C159.975 97.124 158.399 95.0804 158.399 93.4892C158.399 91.898 157.26 88.271 156.356 87.14C155.451 86.009 153.859 83.7314 153.859 83.7314C153.859 83.7314 152.299 83.7314 152.502 84.644C152.872 85.6629 153.326 86.6492 153.859 87.5924C153.859 87.5924 149.32 84.8702 148.189 83.6924C148.075 83.5356 147.93 83.4043 147.763 83.3069C147.596 83.2095 147.41 83.1482 147.217 83.1269C147.025 83.1055 146.83 83.1247 146.645 83.1832C146.461 83.2416 146.29 83.338 146.145 83.4662L148.641 86.1884C148.641 86.1884 148.415 88.0058 150.201 90.9542C151.552 92.9681 153.241 94.7334 155.193 96.1724C155.193 96.1724 164.265 106.835 171.074 112.732C177.884 118.629 184.225 122.263 189.903 123.168C194.911 124.011 202.726 125.516 212.749 123.683Z" fill="white" stroke="#2E353A" stroke-linecap="round" stroke-linejoin="round"/>
<path d="M226.766 265.635C226.766 265.635 223.178 269.465 220.729 271.033C218.28 272.601 215.129 273.661 215.659 275.058C216.189 276.454 222.679 276.282 225.799 276.103C228.919 275.923 235.237 272.983 236.29 272.257C237.343 271.532 232.889 264.957 232.889 264.957C232.889 264.957 229.481 266.875 226.766 265.635Z" fill="#75C044" stroke="#2E353A" stroke-linecap="round" stroke-linejoin="round"/>
<path d="M225.838 276.103C228.958 275.931 235.276 272.983 236.329 272.257C236.618 272.062 236.477 271.407 236.134 270.573C232.582 272.334 228.832 273.664 224.964 274.535C219.848 275.627 216.946 275.112 215.643 274.699C215.639 274.821 215.658 274.942 215.698 275.058C216.181 276.454 222.648 276.282 225.838 276.103Z" fill="#2E353A" stroke="#2E353A" stroke-linecap="round" stroke-linejoin="round"/>
<path d="M203.592 270.9C203.748 270.437 203.835 269.953 203.85 269.465C202.461 270.588 201.455 270.058 199.216 270.198C196.416 270.378 195.371 270.378 189.599 270.378C187.339 270.433 185.09 270.06 182.969 269.278C182.972 269.293 182.972 269.309 182.969 269.325C182.797 270.885 185.941 271.774 189.443 271.774C192.945 271.774 197.134 271.774 199.232 272.125C201.33 272.476 202.719 273.131 203.592 270.9Z" fill="#2E353A" stroke="#2E353A" stroke-linecap="round" stroke-linejoin="round"/>
<path d="M209.645 198.072C209.645 198.072 210.292 187.276 211.486 185.139C212.679 183.002 215.518 180.155 217.414 178.494" stroke="white" stroke-width="0.75" stroke-linecap="round" stroke-linejoin="round"/>
</svg>
