<svg width="43" height="43" viewBox="0 0 43 43" fill="none" xmlns="http://www.w3.org/2000/svg">
<g clip-path="url(#clip0_32_61)">
<path fill-rule="evenodd" clip-rule="evenodd" d="M34.185 19.135C27.305 15.05 15.8025 14.62 9.24501 16.6625C8.17001 16.985 7.095 16.34 6.7725 15.3725C6.45 14.2975 7.095 13.2225 8.0625 12.9C15.695 10.6425 28.2725 11.0725 36.2275 15.8025C37.195 16.34 37.5175 17.63 36.98 18.5975C36.4425 19.35 35.1525 19.6725 34.185 19.135ZM33.97 25.155C33.4325 25.9075 32.465 26.23 31.7125 25.6925C25.9075 22.145 17.0925 21.07 10.32 23.22C9.46 23.435 8.49251 23.005 8.2775 22.145C8.0625 21.285 8.4925 20.3175 9.3525 20.1025C17.2 17.7375 26.875 18.92 33.54 23.005C34.185 23.3275 34.5075 24.4025 33.97 25.155ZM31.39 31.0675C30.96 31.7125 30.2075 31.9275 29.5625 31.4975C24.51 28.38 18.1675 27.735 10.6425 29.455C9.89 29.67 9.245 29.1325 9.03 28.4875C8.815 27.735 9.3525 27.09 9.9975 26.875C18.1675 25.0475 25.2625 25.8 30.8525 29.24C31.605 29.5625 31.7125 30.4225 31.39 31.0675ZM21.5 0C9.675 0 0 9.675 0 21.5C0 33.325 9.675 43 21.5 43C33.325 43 43 33.325 43 21.5C43 9.675 33.4325 0 21.5 0Z" fill="#00DA5A"/>
</g>
<defs>
<clipPath id="clip0_32_61">
<rect width="43" height="43" fill="white"/>
</clipPath>
</defs>
</svg>
