<svg width="66" height="66" viewBox="0 0 66 66" fill="none" xmlns="http://www.w3.org/2000/svg">
<g clip-path="url(#clip0_374_639)">
<path d="M66 33.0001C66 28.5286 64.0365 24.3101 60.7062 21.6591C61.0912 17.1986 59.4962 12.8288 56.3337 9.66359C53.1712 6.50384 48.8125 4.91159 44.572 5.38734C39.0335 -1.64166 27.0682 -1.77366 21.659 5.29109C17.193 4.89509 12.8287 6.49834 9.66622 9.66359C6.50647 12.8261 4.91147 17.1986 5.38997 21.4253C-1.63903 26.9638 -1.77378 38.9291 5.29372 44.3411C4.90872 48.8016 6.50372 53.1713 9.66622 56.3366C12.8287 59.4963 17.193 61.0941 21.428 60.6128C26.9665 67.6418 38.9317 67.7738 44.341 60.7091C48.796 61.0831 53.1685 59.5018 56.3337 56.3366C59.4935 53.1741 61.0885 48.8016 60.61 44.5748C64.0365 41.6928 66 37.4743 66 33.0028V33.0001ZM48.235 29.0566L35.2027 41.6186C32.0045 44.8113 26.7712 44.7838 23.573 41.5828L17.38 35.8298C16.269 34.7958 16.203 33.0551 17.237 31.9441C18.2737 30.8303 20.0172 30.7698 21.1227 31.8011L27.3872 37.6228C28.5367 38.7696 30.2747 38.7668 31.3472 37.6916L44.4152 25.0938C45.5097 24.0433 47.2505 24.0736 48.3037 25.1653C49.3597 26.2571 49.3267 28.0006 48.235 29.0538V29.0566Z" fill="#2E353A"/>
</g>
<defs>
<clipPath id="clip0_374_639">
<rect width="66" height="66" fill="white"/>
</clipPath>
</defs>
</svg>
