<svg width="27" height="32" viewBox="0 0 27 32" fill="none" xmlns="http://www.w3.org/2000/svg">
<path d="M16.2 9.33428V0.613308C17.4326 1.07462 18.5666 1.78526 19.5278 2.73322L24.2311 7.38103C25.1924 8.32899 25.9119 9.44894 26.379 10.6662H17.55C16.8048 10.6662 16.2 10.0689 16.2 9.33428ZM26.9676 13.3341H17.55C15.3171 13.3341 13.5 11.5395 13.5 9.33428V0.0319987C13.2826 0.0173326 13.0653 0 12.8453 0H6.75C3.02805 0.00133328 0 2.99188 0 6.66772V25.3336C0 29.0095 3.02805 32 6.75 32H20.25C23.972 32 27 29.0095 27 25.3336V13.9808C27 13.7634 26.9825 13.5488 26.9676 13.3341ZM18.5044 22.5071C18.2412 22.7671 17.8956 22.8977 17.55 22.8977C17.2044 22.8977 16.8588 22.7671 16.5956 22.5071L14.85 20.7831V26.6469C14.85 27.3829 14.2452 27.9802 13.5 27.9802C12.7548 27.9802 12.15 27.3829 12.15 26.6469V20.7831L10.4044 22.5071C9.8766 23.0284 9.0234 23.0284 8.49555 22.5071C7.9677 21.9858 7.9677 21.1431 8.49555 20.6218L10.6744 18.4699C12.2323 16.9313 14.7676 16.9313 16.3269 18.4699L18.5058 20.6218C19.0337 21.1431 19.0337 21.9858 18.5058 22.5071H18.5044Z" fill="#2E353A"/>
</svg>
