<svg width="33" height="40" viewBox="0 0 33 40" fill="none" xmlns="http://www.w3.org/2000/svg">
<path d="M32.3148 30.525C31.742 31.8545 31.0332 33.1213 30.1998 34.305C29.4252 35.5202 28.5198 36.6469 27.4998 37.665C26.5592 38.5782 25.3148 39.1123 24.0048 39.165C22.8915 39.114 21.7975 38.8545 20.7798 38.4C19.6834 37.9328 18.5066 37.6831 17.3148 37.665C16.0869 37.69 14.8752 37.9497 13.7448 38.43C12.7712 38.8667 11.7323 39.1404 10.6698 39.24C9.99982 39.2288 9.33882 39.0837 8.72572 38.8132C8.11263 38.5427 7.55982 38.1523 7.09984 37.665C6.03741 36.6331 5.08713 35.4918 4.26484 34.26C2.98078 32.4151 1.97032 30.3942 1.26484 28.26C0.454616 25.9812 0.0288136 23.5835 0.00484078 21.165C-0.0602149 18.7907 0.531525 16.4445 1.71484 14.385C2.55125 12.8533 3.77768 11.57 5.26984 10.665C6.73145 9.79238 8.39769 9.32148 10.0998 9.3C11.3846 9.37984 12.647 9.67389 13.8348 10.17C14.7906 10.595 15.7999 10.8877 16.8348 11.04C17.9599 10.8056 19.0599 10.4641 20.1198 10.02C21.5464 9.4384 23.0804 9.16738 24.6198 9.225C26.0745 9.26597 27.5004 9.64024 28.7877 10.319C30.0749 10.9977 31.1893 11.9628 32.0448 13.14C30.6873 13.8565 29.5575 14.9388 28.7834 16.2643C28.0093 17.5898 27.6218 19.1056 27.6648 20.64C27.6495 21.8131 27.8836 22.976 28.3517 24.0518C28.8197 25.1276 29.5111 26.0916 30.3798 26.88C31.1457 27.6215 32.0337 28.2254 33.0048 28.665C32.7798 29.295 32.5548 29.895 32.3148 30.48V30.525ZM24.7548 0.765C24.7278 2.79428 23.9657 4.74488 22.6098 6.255C21.9239 7.19983 21.0206 7.96568 19.9763 8.48783C18.9319 9.00999 17.7773 9.27313 16.6098 9.255C16.594 9.01026 16.594 8.76474 16.6098 8.52C16.6739 6.4625 17.4782 4.49718 18.8748 2.985C19.6518 2.11216 20.5952 1.4033 21.6498 0.9C22.6359 0.396109 23.7112 0.0903469 24.8148 0C24.8293 0.259798 24.8293 0.520202 24.8148 0.78L24.7548 0.765Z" fill="black"/>
</svg>
